<svg width="52" height="52" viewBox="0 0 52 52" fill="none" xmlns="http://www.w3.org/2000/svg">
<path d="M52 26C52 11.6371 40.3629 0 26 0C11.6371 0 0 11.6371 0 26C0 40.3629 11.6371 52 26 52C40.3629 52 52 40.3629 52 26ZM5.03226 26C5.03226 14.4153 14.4153 5.03226 26 5.03226C37.5847 5.03226 46.9677 14.4153 46.9677 26C46.9677 37.5847 37.5847 46.9677 26 46.9677C14.4153 46.9677 5.03226 37.5847 5.03226 26ZM12.5806 28.0968V23.9032C12.5806 23.2113 13.1468 22.6452 13.8387 22.6452H26V15.621C26 14.4992 27.3524 13.9435 28.1492 14.7298L38.5282 25.1089C39.021 25.6016 39.021 26.3984 38.5282 26.8911L28.1492 37.2702C27.3524 38.0669 26 37.5008 26 36.379V29.3548H13.8387C13.1468 29.3548 12.5806 28.7887 12.5806 28.0968Z" fill="white"/>
</svg>
