<svg width="15" height="13" viewBox="0 0 15 13" fill="none" xmlns="http://www.w3.org/2000/svg">
<path d="M13.8541 10.0572C14.5702 9.35148 14.9999 8.46606 14.9999 7.49992C14.9999 5.41659 13.0077 3.69523 10.4114 3.38794C9.59108 1.88794 7.66399 0.833252 5.4166 0.833252C2.42441 0.833252 -6.87462e-05 2.69784 -6.87462e-05 4.99992C-6.87462e-05 5.96346 0.429619 6.84888 1.14576 7.55721C0.747327 8.35669 0.17441 8.97648 0.163994 8.9869C-6.87415e-05 9.16138 -0.0469438 9.41659 0.0494104 9.63794C0.14316 9.85929 0.36191 10.0025 0.601494 10.0025C1.99472 10.0025 3.11972 9.47648 3.86191 8.99211C4.10149 9.04679 4.34889 9.08846 4.60149 9.11971C5.4192 10.6145 7.33847 11.6666 9.58326 11.6666C10.1249 11.6666 10.6458 11.6041 11.1406 11.4895C11.8827 11.9713 13.0051 12.4999 14.401 12.4999C14.6406 12.4999 14.8567 12.3567 14.9531 12.1353C15.0468 11.914 15.0025 11.6588 14.8385 11.4843C14.8281 11.4765 14.2525 10.8567 13.8541 10.0572ZM3.62493 7.65356L3.17962 7.94263C2.81243 8.17961 2.43743 8.36711 2.05722 8.49992C2.12754 8.37752 2.19785 8.24731 2.26556 8.1145L2.6692 7.30461L2.02337 6.66659C1.67181 6.31763 1.24993 5.74731 1.24993 4.99992C1.24993 3.41919 3.15879 2.08325 5.4166 2.08325C7.67441 2.08325 9.58326 3.41919 9.58326 4.99992C9.58326 6.58065 7.67441 7.91659 5.4166 7.91659C4.98691 7.91659 4.55722 7.86711 4.14056 7.77075L3.62493 7.65356ZM12.9765 9.16659L12.3333 9.802L12.7369 10.6119C12.8046 10.7447 12.8749 10.8749 12.9452 10.9973C12.565 10.8645 12.19 10.677 11.8228 10.44L11.3775 10.151L10.8593 10.2708C10.4426 10.3671 10.013 10.4166 9.58326 10.4166C8.17701 10.4166 6.92181 9.89315 6.16399 9.12231C8.80201 8.84106 10.8333 7.10669 10.8333 4.99992C10.8333 4.91138 10.8228 4.82544 10.815 4.7395C12.4921 5.11711 13.7499 6.21867 13.7499 7.49992C13.7499 8.24731 13.3281 8.81763 12.9765 9.16659Z" fill="#85F0FF"/>
</svg>
