<svg width="25" height="21" viewBox="0 0 25 21" fill="none" xmlns="http://www.w3.org/2000/svg">
<path d="M24.4879 7.0352L19.8064 6.2907L20.6927 2.3582C20.7609 2.07185 20.5336 1.8046 20.1927 1.74733L17.5338 1.32736C17.1929 1.27009 16.8747 1.46098 16.8066 1.74733L15.9202 5.67983L11.3751 4.9735L12.2614 1.04101C12.3295 0.754666 12.1023 0.487407 11.7614 0.430138L9.10246 0.01016C8.76157 -0.0471094 8.44342 0.143791 8.37524 0.430138L7.48893 4.36263L2.80739 3.61813C2.4665 3.56087 2.14835 3.75175 2.08017 4.0381L1.58019 6.27161C1.51201 6.55795 1.73929 6.82521 2.08017 6.88248L6.76171 7.62699L5.92083 11.4449L1.2393 10.7004C0.898411 10.6432 0.580259 10.8341 0.512081 11.1204L0.0120947 13.3539C-0.0560831 13.6403 0.171193 13.9075 0.512081 13.9648L5.19361 14.7093L4.3073 18.6418C4.23912 18.9281 4.4664 19.1954 4.80728 19.2527L7.46621 19.6726C7.80709 19.7299 8.12525 19.539 8.19342 19.2527L9.07974 15.3202L13.6249 16.0265L12.7386 19.959C12.6704 20.2453 12.8977 20.5126 13.2386 20.5699L15.8975 20.9898C16.2384 21.0471 16.5566 20.8562 16.6248 20.5699L17.511 16.6374L22.1926 17.3819C22.5335 17.4391 22.8516 17.2482 22.9198 16.9619L23.4198 14.7284C23.488 14.442 23.2607 14.1748 22.9198 14.1175L18.2383 13.373L19.0791 9.55505L23.7607 10.2996C24.1016 10.3568 24.4197 10.1659 24.4879 9.87958L24.9879 7.64607C25.0561 7.35973 24.8288 7.09247 24.4879 7.0352ZM14.3294 12.7812L9.78424 12.0749L10.6251 8.25695L15.1703 8.96327L14.3294 12.7812Z" fill="#AFE1ED"/>
</svg>
