<svg width="1920" height="929" viewBox="0 0 1920 929" fill="none" xmlns="http://www.w3.org/2000/svg">
<path d="M1451.87 707.113C1451.95 707.099 1452.04 707.053 1452.09 706.984C1452.15 706.916 1452.18 706.829 1452.18 706.739C1452.18 706.649 1452.15 706.561 1452.09 706.493C1452.04 706.424 1451.95 706.379 1451.87 706.364C1451.78 706.379 1451.7 706.424 1451.64 706.493C1451.58 706.561 1451.55 706.649 1451.55 706.739C1451.55 706.829 1451.58 706.916 1451.64 706.984C1451.7 707.053 1451.78 707.099 1451.87 707.113V707.113Z" fill="#F9F6EA"/>
<path d="M1454.31 789.209C1454.31 789.549 1454.36 789.879 1454.38 790.21C1454.38 790.306 1454.42 790.399 1454.49 790.47C1454.52 790.506 1454.57 790.535 1454.61 790.554C1454.66 790.573 1454.71 790.582 1454.76 790.58C1454.81 790.583 1454.86 790.575 1454.9 790.556C1454.95 790.537 1454.99 790.507 1455.02 790.47C1455.06 790.437 1455.08 790.397 1455.1 790.352C1455.12 790.307 1455.13 790.258 1455.13 790.21C1455.13 789.869 1455.13 789.539 1455.06 789.209C1455.05 789.112 1455.02 789.02 1454.95 788.949C1454.92 788.913 1454.88 788.884 1454.83 788.865C1454.79 788.846 1454.74 788.837 1454.69 788.839C1454.64 788.837 1454.59 788.846 1454.54 788.865C1454.5 788.884 1454.45 788.913 1454.42 788.949C1454.38 788.983 1454.36 789.024 1454.34 789.068C1454.32 789.113 1454.31 789.161 1454.31 789.209Z" fill="#F9F6EA"/>
<path d="M1478.19 789.949C1478.28 789.934 1478.36 789.889 1478.42 789.82C1478.48 789.751 1478.51 789.664 1478.51 789.574C1478.51 789.484 1478.48 789.397 1478.42 789.328C1478.36 789.26 1478.28 789.214 1478.19 789.199C1478.1 789.214 1478.02 789.26 1477.97 789.328C1477.91 789.397 1477.87 789.484 1477.87 789.574C1477.87 789.664 1477.91 789.751 1477.97 789.82C1478.02 789.889 1478.1 789.934 1478.19 789.949Z" fill="#F9F6EA"/>
<path d="M1567.34 664.911C1567.43 664.896 1567.51 664.85 1567.56 664.782C1567.62 664.713 1567.65 664.626 1567.65 664.536C1567.65 664.446 1567.62 664.359 1567.56 664.29C1567.51 664.222 1567.43 664.176 1567.34 664.161C1567.25 664.176 1567.17 664.222 1567.11 664.29C1567.05 664.359 1567.02 664.446 1567.02 664.536C1567.02 664.626 1567.05 664.713 1567.11 664.782C1567.17 664.85 1567.25 664.896 1567.34 664.911V664.911Z" fill="#F9F6EA"/>
<path d="M1640.81 744.436C1640.9 744.421 1640.98 744.376 1641.04 744.307C1641.1 744.238 1641.13 744.151 1641.13 744.061C1641.13 743.971 1641.1 743.884 1641.04 743.815C1640.98 743.747 1640.9 743.701 1640.81 743.687C1640.72 743.701 1640.64 743.747 1640.58 743.815C1640.53 743.884 1640.49 743.971 1640.49 744.061C1640.49 744.151 1640.53 744.238 1640.58 744.307C1640.64 744.376 1640.72 744.421 1640.81 744.436V744.436Z" fill="#F9F6EA"/>
<path d="M1739.47 807.94C1739.55 807.925 1739.64 807.88 1739.69 807.811C1739.75 807.742 1739.78 807.655 1739.78 807.565C1739.78 807.475 1739.75 807.388 1739.69 807.319C1739.64 807.251 1739.55 807.205 1739.47 807.191C1739.38 807.205 1739.3 807.251 1739.24 807.319C1739.18 807.388 1739.15 807.475 1739.15 807.565C1739.15 807.655 1739.18 807.742 1739.24 807.811C1739.3 807.88 1739.38 807.925 1739.47 807.94Z" fill="#F9F6EA"/>
<path d="M1815.44 872.454C1815.53 872.439 1815.61 872.394 1815.67 872.325C1815.73 872.257 1815.76 872.169 1815.76 872.079C1815.76 871.989 1815.73 871.902 1815.67 871.834C1815.61 871.765 1815.53 871.719 1815.44 871.705C1815.36 871.719 1815.27 871.765 1815.22 871.834C1815.16 871.902 1815.13 871.989 1815.13 872.079C1815.13 872.169 1815.16 872.257 1815.22 872.325C1815.27 872.394 1815.36 872.439 1815.44 872.454V872.454Z" fill="#F9F6EA"/>
<path d="M1750.27 730.855C1750.36 730.84 1750.44 730.795 1750.5 730.726C1750.55 730.657 1750.59 730.57 1750.59 730.48C1750.59 730.39 1750.55 730.303 1750.5 730.234C1750.44 730.166 1750.36 730.12 1750.27 730.106C1750.18 730.12 1750.1 730.166 1750.04 730.234C1749.98 730.303 1749.95 730.39 1749.95 730.48C1749.95 730.57 1749.98 730.657 1750.04 730.726C1750.1 730.795 1750.18 730.84 1750.27 730.855V730.855Z" fill="#F9F6EA"/>
<path d="M1549.2 826.832C1549.4 826.832 1549.59 826.753 1549.73 826.612C1549.87 826.472 1549.95 826.281 1549.95 826.082C1549.95 825.883 1549.87 825.692 1549.73 825.551C1549.59 825.411 1549.4 825.332 1549.2 825.332C1549 825.332 1548.81 825.411 1548.67 825.551C1548.53 825.692 1548.45 825.883 1548.45 826.082C1548.45 826.281 1548.53 826.472 1548.67 826.612C1548.81 826.753 1549 826.832 1549.2 826.832V826.832Z" fill="#F9F6EA"/>
<path d="M1607.73 701.754C1607.73 702.084 1607.78 702.424 1607.81 702.754C1607.8 702.851 1607.82 702.949 1607.87 703.034C1607.9 703.131 1607.95 703.218 1608.03 703.284C1608.09 703.356 1608.18 703.409 1608.27 703.434C1608.36 703.483 1608.46 703.507 1608.56 703.504C1608.76 703.498 1608.95 703.42 1609.09 703.284C1609.24 703.145 1609.32 702.955 1609.33 702.754C1609.33 702.414 1609.28 702.074 1609.25 701.754C1609.26 701.653 1609.24 701.552 1609.19 701.464C1609.16 701.371 1609.1 701.288 1609.03 701.224C1608.97 701.146 1608.89 701.089 1608.79 701.064C1608.7 701.018 1608.6 700.997 1608.5 701.004C1608.3 701.006 1608.11 701.085 1607.97 701.224C1607.83 701.367 1607.75 701.556 1607.75 701.754H1607.73Z" fill="#F9F6EA"/>
<path d="M1675.4 736.286L1676.4 736.226C1676.5 736.229 1676.6 736.205 1676.69 736.156C1676.78 736.131 1676.87 736.079 1676.93 736.006C1677.01 735.94 1677.06 735.853 1677.09 735.756C1677.14 735.672 1677.16 735.573 1677.15 735.476C1677.15 735.377 1677.13 735.28 1677.1 735.188C1677.06 735.097 1677 735.015 1676.93 734.946C1676.86 734.88 1676.78 734.829 1676.69 734.796C1676.59 734.763 1676.5 734.75 1676.4 734.756L1675.4 734.816C1675.3 734.814 1675.2 734.838 1675.11 734.886C1675.02 734.916 1674.94 734.968 1674.87 735.036C1674.8 735.105 1674.75 735.191 1674.72 735.286C1674.67 735.371 1674.65 735.468 1674.65 735.566C1674.65 735.768 1674.73 735.962 1674.87 736.106C1674.94 736.174 1675.02 736.228 1675.11 736.264C1675.2 736.3 1675.3 736.318 1675.4 736.316V736.286Z" fill="#F9F6EA"/>
<path d="M1867.51 807.361C1867.71 807.361 1867.9 807.282 1868.04 807.141C1868.18 807 1868.26 806.809 1868.26 806.611C1868.26 806.412 1868.18 806.221 1868.04 806.08C1867.9 805.939 1867.71 805.86 1867.51 805.86C1867.31 805.86 1867.12 805.939 1866.98 806.08C1866.84 806.221 1866.76 806.412 1866.76 806.611C1866.76 806.809 1866.84 807 1866.98 807.141C1867.12 807.282 1867.31 807.361 1867.51 807.361V807.361Z" fill="#F9F6EA"/>
<path d="M1821.43 769.758C1821.63 769.758 1821.82 769.679 1821.96 769.539C1822.1 769.398 1822.18 769.207 1822.18 769.008C1822.18 768.809 1822.1 768.619 1821.96 768.478C1821.82 768.337 1821.63 768.258 1821.43 768.258C1821.23 768.258 1821.04 768.337 1820.9 768.478C1820.76 768.619 1820.68 768.809 1820.68 769.008C1820.68 769.207 1820.76 769.398 1820.9 769.539C1821.04 769.679 1821.23 769.758 1821.43 769.758Z" fill="#F9F6EA"/>
<path d="M1499.7 666.241L1500.7 666.171C1500.8 666.172 1500.9 666.151 1500.99 666.111C1501.08 666.077 1501.16 666.023 1501.23 665.951C1501.3 665.884 1501.35 665.802 1501.38 665.711C1501.43 665.622 1501.45 665.523 1501.45 665.421C1501.44 665.224 1501.36 665.035 1501.23 664.891C1501.09 664.753 1500.9 664.674 1500.7 664.671L1499.7 664.741C1499.6 664.74 1499.5 664.76 1499.41 664.801C1499.31 664.833 1499.22 664.888 1499.16 664.961C1499.09 665.029 1499.04 665.111 1499.01 665.201C1498.96 665.29 1498.93 665.391 1498.95 665.491C1498.94 665.589 1498.96 665.687 1499 665.777C1499.03 665.868 1499.09 665.951 1499.16 666.021C1499.3 666.161 1499.49 666.24 1499.7 666.241Z" fill="#F9F6EA"/>
<path d="M1010.56 701.813C1010.65 701.798 1010.73 701.753 1010.78 701.684C1010.84 701.616 1010.87 701.528 1010.87 701.438C1010.87 701.348 1010.84 701.261 1010.78 701.193C1010.73 701.124 1010.65 701.078 1010.56 701.064C1010.47 701.078 1010.39 701.124 1010.33 701.193C1010.27 701.261 1010.24 701.348 1010.24 701.438C1010.24 701.528 1010.27 701.616 1010.33 701.684C1010.39 701.753 1010.47 701.798 1010.56 701.813V701.813Z" fill="#F9F6EA"/>
<path d="M1050.93 750.456C1051.02 750.442 1051.1 750.396 1051.16 750.327C1051.21 750.259 1051.25 750.172 1051.25 750.082C1051.25 749.992 1051.21 749.904 1051.16 749.836C1051.1 749.767 1051.02 749.721 1050.93 749.707C1050.84 749.721 1050.76 749.767 1050.7 749.836C1050.64 749.904 1050.61 749.992 1050.61 750.082C1050.61 750.172 1050.64 750.259 1050.7 750.327C1050.76 750.396 1050.84 750.442 1050.93 750.456V750.456Z" fill="#F9F6EA"/>
<path d="M1029.79 845.762C1029.88 845.748 1029.96 845.702 1030.01 845.633C1030.07 845.565 1030.1 845.478 1030.1 845.388C1030.1 845.298 1030.07 845.211 1030.01 845.142C1029.96 845.073 1029.88 845.028 1029.79 845.013C1029.7 845.028 1029.62 845.073 1029.56 845.142C1029.5 845.211 1029.47 845.298 1029.47 845.388C1029.47 845.478 1029.5 845.565 1029.56 845.633C1029.62 845.702 1029.7 845.748 1029.79 845.762V845.762Z" fill="#F9F6EA"/>
<path d="M1556.7 700.284L1555.81 699.864C1555.77 699.844 1555.72 699.834 1555.67 699.834C1555.62 699.834 1555.57 699.844 1555.52 699.864C1555.48 699.875 1555.43 699.896 1555.4 699.925C1555.36 699.954 1555.33 699.991 1555.3 700.034C1555.28 700.08 1555.27 700.129 1555.27 700.179C1555.27 700.229 1555.28 700.278 1555.3 700.324C1555.32 700.37 1555.34 700.414 1555.37 700.452C1555.4 700.49 1555.43 700.521 1555.47 700.544L1556.36 700.974C1556.45 701.009 1556.55 701.009 1556.65 700.974C1556.74 700.948 1556.82 700.887 1556.87 700.804C1556.89 700.758 1556.9 700.709 1556.9 700.659C1556.9 700.609 1556.89 700.559 1556.87 700.514C1556.84 700.422 1556.78 700.343 1556.7 700.294V700.284Z" fill="#F9F6EA"/>
<path d="M1179.25 644.059C1179.34 644.045 1179.42 643.999 1179.48 643.931C1179.54 643.862 1179.57 643.775 1179.57 643.685C1179.57 643.595 1179.54 643.508 1179.48 643.439C1179.42 643.37 1179.34 643.325 1179.25 643.31C1179.16 643.325 1179.08 643.37 1179.02 643.439C1178.97 643.508 1178.93 643.595 1178.93 643.685C1178.93 643.775 1178.97 643.862 1179.02 643.931C1179.08 643.999 1179.16 644.045 1179.25 644.059V644.059Z" fill="#F9F6EA"/>
<path d="M1213.02 737.755C1213.11 737.741 1213.19 737.695 1213.25 737.627C1213.3 737.558 1213.34 737.471 1213.34 737.381C1213.34 737.291 1213.3 737.204 1213.25 737.135C1213.19 737.066 1213.11 737.021 1213.02 737.006C1212.93 737.021 1212.85 737.066 1212.79 737.135C1212.73 737.204 1212.7 737.291 1212.7 737.381C1212.7 737.471 1212.73 737.558 1212.79 737.627C1212.85 737.695 1212.93 737.741 1213.02 737.755V737.755Z" fill="#F9F6EA"/>
<path d="M1699.72 644.409C1699.81 644.395 1699.89 644.349 1699.95 644.28C1700.01 644.212 1700.04 644.125 1700.04 644.035C1700.04 643.945 1700.01 643.858 1699.95 643.789C1699.89 643.72 1699.81 643.675 1699.72 643.66C1699.64 643.675 1699.55 643.72 1699.5 643.789C1699.44 643.858 1699.41 643.945 1699.41 644.035C1699.41 644.125 1699.44 644.212 1699.5 644.28C1699.55 644.349 1699.64 644.395 1699.72 644.409V644.409Z" fill="#F9F6EA"/>
<path d="M1404.12 687.452C1404.21 687.438 1404.29 687.392 1404.34 687.323C1404.4 687.255 1404.43 687.168 1404.43 687.078C1404.43 686.987 1404.4 686.9 1404.34 686.832C1404.29 686.763 1404.21 686.717 1404.12 686.703C1404.03 686.717 1403.95 686.763 1403.89 686.832C1403.83 686.9 1403.8 686.987 1403.8 687.078C1403.8 687.168 1403.83 687.255 1403.89 687.323C1403.95 687.392 1404.03 687.438 1404.12 687.452V687.452Z" fill="#F9F6EA"/>
<path d="M1288.68 863.234L1287.8 862.814C1287.75 862.795 1287.7 862.785 1287.65 862.785C1287.6 862.785 1287.55 862.795 1287.51 862.814C1287.46 862.826 1287.41 862.846 1287.38 862.876C1287.34 862.905 1287.31 862.942 1287.28 862.984C1287.27 863.03 1287.26 863.079 1287.26 863.129C1287.26 863.179 1287.27 863.228 1287.28 863.274C1287.31 863.37 1287.37 863.452 1287.46 863.504L1288.34 863.924C1288.43 863.955 1288.53 863.955 1288.63 863.924C1288.72 863.894 1288.8 863.83 1288.85 863.744C1288.87 863.7 1288.88 863.652 1288.88 863.604C1288.88 863.556 1288.87 863.508 1288.85 863.464C1288.82 863.369 1288.76 863.287 1288.68 863.234Z" fill="#F9F6EA"/>
<path d="M1625.35 819.761H1625.43L1625.98 819.981C1625.97 819.925 1625.97 819.868 1625.98 819.811L1625.36 819.981C1625.44 820.461 1626.16 820.261 1626.08 819.781C1626.07 819.65 1626.02 819.524 1625.93 819.431C1625.88 819.386 1625.82 819.353 1625.76 819.335C1625.7 819.318 1625.63 819.318 1625.57 819.334C1625.5 819.35 1625.45 819.382 1625.4 819.427C1625.35 819.472 1625.32 819.529 1625.3 819.591C1625.25 819.779 1625.25 819.974 1625.3 820.161C1625.31 820.217 1625.34 820.268 1625.38 820.311C1625.42 820.354 1625.46 820.387 1625.52 820.41C1625.57 820.432 1625.63 820.442 1625.68 820.438C1625.74 820.435 1625.8 820.419 1625.85 820.391C1625.98 820.292 1626.07 820.146 1626.11 819.981C1626.27 819.531 1625.55 819.331 1625.39 819.781L1625.35 819.761Z" fill="#F9F6EA"/>
<path d="M1660.1 800.85C1660.19 800.835 1660.27 800.789 1660.33 800.721C1660.39 800.652 1660.42 800.565 1660.42 800.475C1660.42 800.385 1660.39 800.298 1660.33 800.229C1660.27 800.16 1660.19 800.115 1660.1 800.1C1660.01 800.115 1659.93 800.16 1659.87 800.229C1659.82 800.298 1659.78 800.385 1659.78 800.475C1659.78 800.565 1659.82 800.652 1659.87 800.721C1659.93 800.789 1660.01 800.835 1660.1 800.85Z" fill="#F9F6EA"/>
<path d="M1702.29 776.318C1702.38 776.303 1702.46 776.258 1702.52 776.189C1702.57 776.12 1702.61 776.033 1702.61 775.943C1702.61 775.853 1702.57 775.766 1702.52 775.697C1702.46 775.629 1702.38 775.583 1702.29 775.569C1702.2 775.583 1702.12 775.629 1702.06 775.697C1702 775.766 1701.97 775.853 1701.97 775.943C1701.97 776.033 1702 776.12 1702.06 776.189C1702.12 776.258 1702.2 776.303 1702.29 776.318V776.318Z" fill="#F9F6EA"/>
<path d="M1678.04 918.337C1678.13 918.323 1678.21 918.277 1678.27 918.208C1678.33 918.14 1678.36 918.052 1678.36 917.962C1678.36 917.872 1678.33 917.785 1678.27 917.717C1678.21 917.648 1678.13 917.602 1678.04 917.588C1677.95 917.602 1677.87 917.648 1677.81 917.717C1677.76 917.785 1677.72 917.872 1677.72 917.962C1677.72 918.052 1677.76 918.14 1677.81 918.208C1677.87 918.277 1677.95 918.323 1678.04 918.337V918.337Z" fill="#F9F6EA"/>
<path d="M1558.28 744.976C1558.37 744.961 1558.45 744.916 1558.5 744.847C1558.56 744.778 1558.6 744.691 1558.6 744.601C1558.6 744.511 1558.56 744.424 1558.5 744.355C1558.45 744.287 1558.37 744.241 1558.28 744.227C1558.19 744.241 1558.11 744.287 1558.05 744.355C1557.99 744.424 1557.96 744.511 1557.96 744.601C1557.96 744.691 1557.99 744.778 1558.05 744.847C1558.11 744.916 1558.19 744.961 1558.28 744.976V744.976Z" fill="#F9F6EA"/>
<path d="M1482.85 795.34L1481.97 794.91C1481.88 794.875 1481.78 794.875 1481.69 794.91C1481.64 794.921 1481.59 794.942 1481.55 794.971C1481.51 795 1481.48 795.037 1481.46 795.08C1481.42 795.173 1481.42 795.276 1481.46 795.37C1481.47 795.417 1481.49 795.461 1481.52 795.498C1481.56 795.536 1481.59 795.567 1481.64 795.59L1482.51 796.01C1482.6 796.048 1482.71 796.048 1482.8 796.01C1482.89 795.984 1482.98 795.924 1483.03 795.84C1483.05 795.794 1483.06 795.745 1483.06 795.695C1483.06 795.645 1483.05 795.596 1483.03 795.55C1483.02 795.503 1483 795.458 1482.97 795.42C1482.94 795.382 1482.9 795.351 1482.86 795.33L1482.85 795.34Z" fill="#F9F6EA"/>
<path d="M1371.02 761.688L1369.7 762.178C1369.61 762.206 1369.53 762.269 1369.48 762.355C1369.43 762.441 1369.42 762.542 1369.44 762.638C1369.47 762.732 1369.53 762.812 1369.62 762.861C1369.7 762.909 1369.81 762.923 1369.9 762.898L1371.22 762.408C1371.32 762.38 1371.4 762.316 1371.45 762.23C1371.49 762.144 1371.51 762.043 1371.48 761.948C1371.45 761.853 1371.39 761.773 1371.3 761.725C1371.22 761.676 1371.12 761.663 1371.02 761.688V761.688Z" fill="#F9F6EA"/>
<path d="M1194.02 922.707C1194.11 922.693 1194.19 922.647 1194.25 922.579C1194.3 922.51 1194.34 922.423 1194.34 922.333C1194.34 922.243 1194.3 922.156 1194.25 922.087C1194.19 922.018 1194.11 921.973 1194.02 921.958C1193.93 921.973 1193.85 922.018 1193.79 922.087C1193.73 922.156 1193.7 922.243 1193.7 922.333C1193.7 922.423 1193.73 922.51 1193.79 922.579C1193.85 922.647 1193.93 922.693 1194.02 922.707Z" fill="#F9F6EA"/>
<path d="M1127.16 918.938L1125.84 919.428C1125.74 919.453 1125.66 919.514 1125.61 919.598C1125.57 919.691 1125.57 919.795 1125.61 919.888C1125.62 919.936 1125.64 919.98 1125.67 920.019C1125.7 920.058 1125.74 920.09 1125.78 920.115C1125.82 920.139 1125.87 920.154 1125.92 920.16C1125.97 920.166 1126.02 920.162 1126.07 920.148L1127.38 919.668C1127.47 919.637 1127.56 919.574 1127.61 919.488C1127.63 919.444 1127.64 919.396 1127.64 919.348C1127.64 919.3 1127.63 919.252 1127.61 919.208C1127.58 919.113 1127.52 919.032 1127.43 918.982C1127.35 918.932 1127.24 918.916 1127.15 918.938H1127.16Z" fill="#F9F6EA"/>
<path d="M1639.06 722.854C1639.15 722.84 1639.23 722.794 1639.29 722.726C1639.35 722.657 1639.38 722.57 1639.38 722.48C1639.38 722.39 1639.35 722.303 1639.29 722.234C1639.23 722.165 1639.15 722.12 1639.06 722.105C1638.97 722.12 1638.89 722.165 1638.83 722.234C1638.77 722.303 1638.74 722.39 1638.74 722.48C1638.74 722.57 1638.77 722.657 1638.83 722.726C1638.89 722.794 1638.97 722.84 1639.06 722.854Z" fill="#F9F6EA"/>
<path d="M1290.78 707.214C1290.98 707.214 1291.17 707.135 1291.31 706.995C1291.45 706.854 1291.53 706.663 1291.53 706.464C1291.53 706.265 1291.45 706.074 1291.31 705.934C1291.17 705.793 1290.98 705.714 1290.78 705.714C1290.58 705.714 1290.39 705.793 1290.25 705.934C1290.11 706.074 1290.03 706.265 1290.03 706.464C1290.03 706.663 1290.11 706.854 1290.25 706.995C1290.39 707.135 1290.58 707.214 1290.78 707.214Z" fill="#F9F6EA"/>
<path d="M1486.29 709.604L1487.16 710.024C1487.25 710.074 1487.34 710.104 1487.44 710.114C1487.54 710.139 1487.65 710.139 1487.74 710.114C1487.84 710.088 1487.93 710.04 1488 709.974C1488.09 709.921 1488.16 709.845 1488.2 709.754C1488.26 709.668 1488.29 709.571 1488.3 709.472C1488.31 709.372 1488.3 709.271 1488.27 709.174C1488.22 708.986 1488.1 708.825 1487.93 708.724L1487.05 708.304C1486.97 708.254 1486.87 708.223 1486.77 708.214C1486.68 708.184 1486.58 708.184 1486.48 708.214C1486.38 708.231 1486.29 708.276 1486.22 708.344C1486.14 708.394 1486.07 708.467 1486.03 708.554C1485.98 708.64 1485.95 708.736 1485.93 708.836C1485.92 708.936 1485.92 709.037 1485.95 709.134C1486 709.324 1486.13 709.486 1486.3 709.584L1486.29 709.604Z" fill="#F9F6EA"/>
<path d="M1530.12 763.198C1530.32 763.198 1530.51 763.119 1530.65 762.978C1530.79 762.837 1530.87 762.647 1530.87 762.448C1530.87 762.249 1530.79 762.058 1530.65 761.917C1530.51 761.777 1530.32 761.698 1530.12 761.698C1529.92 761.698 1529.73 761.777 1529.59 761.917C1529.45 762.058 1529.37 762.249 1529.37 762.448C1529.37 762.647 1529.45 762.837 1529.59 762.978C1529.73 763.119 1529.92 763.198 1530.12 763.198Z" fill="#F9F6EA"/>
<path d="M1598.5 883.246L1597.63 882.825C1597.53 882.782 1597.42 882.762 1597.32 882.765C1597.22 882.735 1597.12 882.735 1597.02 882.765C1596.92 882.784 1596.83 882.829 1596.76 882.895C1596.68 882.948 1596.61 883.02 1596.57 883.106C1596.47 883.281 1596.44 883.489 1596.49 883.686C1596.54 883.876 1596.67 884.037 1596.84 884.136L1597.72 884.556C1597.8 884.606 1597.89 884.637 1597.99 884.646C1598.09 884.671 1598.19 884.671 1598.29 884.646C1598.39 884.621 1598.48 884.573 1598.55 884.506C1598.63 884.453 1598.7 884.381 1598.74 884.296C1598.83 884.127 1598.86 883.927 1598.81 883.74C1598.76 883.553 1598.64 883.394 1598.47 883.296L1598.5 883.246Z" fill="#F9F6EA"/>
<path d="M1605.57 929.769C1605.77 929.769 1605.96 929.69 1606.1 929.549C1606.24 929.408 1606.32 929.217 1606.32 929.018C1606.32 928.82 1606.24 928.629 1606.1 928.488C1605.96 928.347 1605.77 928.268 1605.57 928.268C1605.37 928.268 1605.18 928.347 1605.04 928.488C1604.89 928.629 1604.82 928.82 1604.82 929.018C1604.82 929.217 1604.89 929.408 1605.04 929.549C1605.18 929.69 1605.37 929.769 1605.57 929.769Z" fill="#F9F6EA"/>
<path d="M1526.24 867.695C1526.44 867.695 1526.63 867.616 1526.77 867.475C1526.92 867.334 1526.99 867.143 1526.99 866.944C1526.99 866.746 1526.92 866.555 1526.77 866.414C1526.63 866.273 1526.44 866.194 1526.24 866.194C1526.04 866.194 1525.85 866.273 1525.71 866.414C1525.57 866.555 1525.49 866.746 1525.49 866.944C1525.49 867.143 1525.57 867.334 1525.71 867.475C1525.85 867.616 1526.04 867.695 1526.24 867.695V867.695Z" fill="#F9F6EA"/>
<path d="M1269.53 651.691C1269.73 651.691 1269.92 651.612 1270.06 651.471C1270.2 651.33 1270.28 651.139 1270.28 650.94C1270.28 650.742 1270.2 650.551 1270.06 650.41C1269.92 650.269 1269.73 650.19 1269.53 650.19C1269.33 650.19 1269.14 650.269 1269 650.41C1268.85 650.551 1268.78 650.742 1268.78 650.94C1268.78 651.139 1268.85 651.33 1269 651.471C1269.14 651.612 1269.33 651.691 1269.53 651.691V651.691Z" fill="#F9F6EA"/>
<path d="M974.319 793.449C974.408 793.434 974.488 793.389 974.547 793.32C974.605 793.252 974.637 793.164 974.637 793.074C974.637 792.984 974.605 792.897 974.547 792.829C974.488 792.76 974.408 792.714 974.319 792.7C974.23 792.714 974.149 792.76 974.09 792.829C974.032 792.897 974 792.984 974 793.074C974 793.164 974.032 793.252 974.09 793.32C974.149 793.389 974.23 793.434 974.319 793.449V793.449Z" fill="#F9F6EA"/>
<path d="M1008.08 887.155C1008.17 887.141 1008.25 887.095 1008.31 887.026C1008.37 886.958 1008.4 886.87 1008.4 886.78C1008.4 886.69 1008.37 886.603 1008.31 886.535C1008.25 886.466 1008.17 886.42 1008.08 886.406C1007.99 886.42 1007.91 886.466 1007.86 886.535C1007.8 886.603 1007.77 886.69 1007.77 886.78C1007.77 886.87 1007.8 886.958 1007.86 887.026C1007.91 887.095 1007.99 887.141 1008.08 887.155Z" fill="#F9F6EA"/>
<path d="M1085.85 856.604C1086.04 856.604 1086.24 856.525 1086.38 856.384C1086.52 856.243 1086.6 856.053 1086.6 855.854C1086.6 855.655 1086.52 855.464 1086.38 855.323C1086.24 855.183 1086.04 855.104 1085.85 855.104C1085.65 855.104 1085.45 855.183 1085.31 855.323C1085.17 855.464 1085.09 855.655 1085.09 855.854C1085.09 856.053 1085.17 856.243 1085.31 856.384C1085.45 856.525 1085.65 856.604 1085.85 856.604Z" fill="#F9F6EA"/>
<path d="M1064.59 801.08C1064.79 801.08 1064.98 801.001 1065.12 800.861C1065.26 800.72 1065.34 800.529 1065.34 800.33C1065.34 800.131 1065.26 799.941 1065.12 799.8C1064.98 799.659 1064.79 799.58 1064.59 799.58C1064.39 799.58 1064.2 799.659 1064.06 799.8C1063.92 799.941 1063.84 800.131 1063.84 800.33C1063.84 800.529 1063.92 800.72 1064.06 800.861C1064.2 801.001 1064.39 801.08 1064.59 801.08V801.08Z" fill="#F9F6EA"/>
<path d="M1284 961C1293.67 977.333 1320.6 1002.6 1351 973C1389 936 1383 985 1414 973C1438.8 963.4 1424.33 933 1414 919V891" stroke="white" stroke-width="2"/>
<path d="M1490 896V963C1494 978.333 1509.8 1005.4 1541 991C1580 973 1565 1025 1585 1013C1605 1001 1594 1045 1611 1041C1624.6 1037.8 1624.67 1021 1623 1013" stroke="white" stroke-width="2"/>
<path d="M740 295C740 396.564 652.529 479 544.5 479C436.471 479 349 396.564 349 295C349 193.436 436.471 111 544.5 111C652.529 111 740 193.436 740 295Z" stroke="white" stroke-width="2"/>
<path d="M1567.26 181.284C1587.97 258.583 1538.24 339.174 1456.03 361.201C1373.83 383.229 1290.47 338.299 1269.75 261C1249.04 183.701 1298.77 103.111 1380.98 81.0829C1463.19 59.055 1546.55 103.985 1567.26 181.284Z" stroke="white" stroke-width="2"/>
<path d="M1265 235.827C1293.99 229.11 1307.95 233.028 1311.31 235.827C1313.32 238.976 1320.17 243.384 1331.44 235.827C1345.54 226.381 1352.59 222.182 1365.67 224.282C1378.76 226.381 1391.85 237.926 1401.92 224.282C1411.98 210.637 1423.06 210.637 1440.17 211.687C1457.29 212.736 1461.31 215.885 1473.39 200.141C1485.47 184.397 1487.49 188.595 1504.6 200.141C1521.72 211.687 1516.68 185.446 1534.8 192.794C1549.3 198.671 1560.31 184.047 1564 176" stroke="white" stroke-width="2"/>
<path d="M1282 160.61C1305.56 155.152 1316.91 158.336 1319.64 160.61C1321.27 163.168 1326.84 166.75 1336 160.61C1347.45 152.934 1353.18 149.523 1363.82 151.229C1374.45 152.934 1385.09 162.315 1393.27 151.229C1401.45 140.143 1410.45 140.143 1424.36 140.995C1438.27 141.848 1441.55 144.406 1451.36 131.614C1461.18 118.822 1462.82 122.233 1476.73 131.614C1490.64 140.995 1486.55 119.675 1501.27 125.645C1513.05 130.42 1522 118.538 1525 112" stroke="white" stroke-width="2"/>
<path d="M1288 147.001C1309.82 142.173 1320.32 144.989 1322.85 147.001C1324.36 149.264 1329.52 152.433 1338 147.001C1348.61 140.211 1353.91 137.194 1363.76 138.702C1373.61 140.211 1383.45 148.509 1391.03 138.702C1398.61 128.895 1406.94 128.895 1419.82 129.65C1432.7 130.404 1435.73 132.667 1444.82 121.351C1453.91 110.035 1455.42 113.053 1468.3 121.351C1481.18 129.65 1477.39 110.79 1491.03 116.07C1501.94 120.295 1510.22 109.784 1513 104" stroke="white" stroke-width="2"/>
<path d="M1270 255.436C1299.09 248.089 1313.1 252.375 1316.46 255.436C1318.48 258.88 1325.35 263.702 1336.67 255.436C1350.81 245.104 1357.88 240.512 1371.01 242.808C1384.14 245.104 1397.27 257.732 1407.37 242.808C1417.47 227.884 1428.59 227.884 1445.76 229.032C1462.93 230.18 1466.97 233.624 1479.09 216.404C1491.21 199.184 1493.23 203.776 1510.4 216.404C1527.58 229.032 1522.53 200.332 1540.71 208.368C1555.25 214.797 1566.3 198.801 1570 190" stroke="white" stroke-width="2"/>
<path d="M1339 347.262C1358.01 342.853 1367.16 345.425 1369.36 347.262C1370.68 349.328 1375.16 352.221 1382.56 347.262C1391.79 341.062 1396.41 338.307 1404.99 339.685C1413.57 341.062 1422.15 348.639 1428.75 339.685C1435.35 330.73 1442.61 330.73 1453.83 331.419C1465.05 332.108 1467.69 334.174 1475.61 323.842C1483.53 313.51 1484.85 316.265 1496.06 323.842C1507.28 331.419 1503.98 314.199 1515.86 319.021C1525.36 322.878 1543.08 303.781 1545.5 298.5" stroke="white" stroke-width="2"/>
<path d="M1308 326.153C1332.63 319.961 1344.49 323.573 1347.34 326.153C1349.05 329.056 1354.87 333.12 1364.44 326.153C1376.42 317.445 1382.4 313.574 1393.52 315.51C1404.64 317.445 1415.76 328.088 1424.31 315.51C1432.86 302.931 1442.27 302.931 1456.81 303.899C1471.35 304.866 1474.77 307.769 1485.03 293.255C1495.29 278.741 1497 282.611 1511.54 293.255C1526.08 303.899 1521.8 279.708 1537.2 286.482C1549.51 291.9 1558.86 278.418 1562 271" stroke="white" stroke-width="2"/>
<path d="M372 380C386.333 369.333 420.6 352.6 443 371C471 394 434 426 477 432C508 432 490 456 520 440C550 424 540 447 557 450C570.6 452.4 576.667 467 578 474" stroke="white" stroke-width="2"/>
<path d="M656.747 445.22C633.587 427.164 596.148 389.278 631.675 382.187C676.084 373.323 638.562 366.523 665.85 364.105C693.139 361.686 667.562 339.16 699.921 337.717C725.809 336.562 731.071 347.365 730.465 352.912" stroke="white" stroke-width="2"/>
<path d="M421.389 312.455C413.389 307.789 399.389 292.855 407.389 270.455C412.055 263.122 426.989 249.055 449.389 251.455C477.389 254.455 466.389 245.455 483.389 257.455C500.389 269.455 491.389 286.455 473.389 286.455C455.389 286.455 464.389 298.455 449.389 312.455C437.389 323.655 425.722 317.122 421.389 312.455Z" stroke="white" stroke-width="2"/>
<path d="M578.858 328.348C587.68 331.166 604.59 342.701 601.646 366.304C598.684 374.476 587.163 391.451 564.776 393.974C536.793 397.128 549.486 403.523 530.285 395.503C511.084 387.482 516.177 368.933 533.747 365.023C551.317 361.113 539.925 351.354 551.526 334.43C560.807 320.891 573.614 324.734 578.858 328.348Z" stroke="white" stroke-width="2"/>
<path d="M557.862 260.606C555.627 251.618 556.565 231.17 578.197 221.28C586.708 219.51 607.203 220.402 621.106 238.129C638.484 260.288 648.744 240.053 652 260.606C655.256 281.158 625.315 292.638 612.761 279.739C600.207 266.839 597.884 281.658 577.39 280.672C560.994 279.883 557.54 266.966 557.862 260.606Z" stroke="white" stroke-width="2"/>
<path d="M1580.19 393.639L1578.83 404.876C1578.62 406.575 1579.52 408.217 1581.06 408.96L1591.42 413.952C1593.19 414.803 1592.8 417.423 1590.87 417.729L1579.99 419.447C1578.23 419.726 1576.86 421.143 1576.65 422.918L1575.34 433.734C1575.1 435.649 1572.56 436.159 1571.61 434.481L1565.84 424.309C1565.02 422.859 1563.38 422.072 1561.74 422.332L1550.18 424.157C1548.28 424.459 1547.09 422.154 1548.44 420.779L1556.09 413.014C1557.34 411.74 1557.6 409.789 1556.72 408.234L1551.28 398.657C1550.31 396.952 1552.12 395.017 1553.89 395.868L1564.25 400.86C1565.79 401.603 1567.64 401.282 1568.84 400.062L1576.78 391.996C1578.12 390.636 1580.42 391.745 1580.19 393.639Z" stroke="white" stroke-width="2"/>
<path d="M632.538 545.788L636.885 549.436C638.196 550.536 640.062 550.68 641.526 549.794L646.324 546.892C648.002 545.877 649.986 547.631 649.185 549.421L647.054 554.177C646.324 555.809 646.764 557.727 648.134 558.876L652.156 562.252C653.634 563.492 652.673 565.899 650.747 565.78L644.862 565.417C643.198 565.315 641.646 566.254 640.965 567.775L638.554 573.157C637.766 574.917 635.188 574.651 634.775 572.767L633.652 567.637C633.27 565.891 631.775 564.61 629.991 564.5L624.789 564.179C622.832 564.058 622.199 561.486 623.877 560.472L628.675 557.569C630.139 556.683 630.878 554.963 630.512 553.291L629.298 547.748C628.89 545.884 631.076 544.561 632.538 545.788Z" stroke="white" stroke-width="2"/>
<path d="M1210.99 65.7472L1210.95 66.0884C1210.75 67.7878 1211.65 69.4296 1213.19 70.1725L1213.42 70.2836C1215.13 71.106 1214.75 73.6383 1212.88 73.934C1211.14 74.2087 1209.8 75.6108 1209.59 77.353C1209.36 79.2716 1206.83 79.7593 1205.9 78.1198L1205.66 77.6997C1204.84 76.2504 1203.21 75.4629 1201.56 75.7229L1201.08 75.7983C1199.22 76.0925 1198.03 73.8127 1199.38 72.4354C1200.61 71.1847 1200.87 69.2616 1200.01 67.7306C1199.07 66.0827 1200.82 64.213 1202.52 65.0354L1202.76 65.1465C1204.3 65.8894 1206.14 65.5688 1207.34 64.3489L1207.58 64.1039C1208.92 62.7439 1211.22 63.8527 1210.99 65.7472Z" stroke="white" stroke-width="2"/>
<path d="M554.271 19.1897L554.591 30.504C554.639 32.2151 555.771 33.7057 557.406 34.212L568.392 37.6139C570.265 38.1938 570.272 40.8423 568.402 41.4318L557.9 44.7424C556.195 45.2799 555.054 46.8834 555.104 48.6704L555.412 59.5615C555.467 61.4897 553.029 62.37 551.839 60.8519L544.623 51.6466C543.595 50.3352 541.861 49.7985 540.272 50.2995L529.117 53.8161C527.277 54.3961 525.763 52.2923 526.898 50.7322L533.307 41.9209C534.358 40.4752 534.323 38.5073 533.22 37.1003L526.427 28.4344C525.217 26.8913 526.719 24.71 528.592 25.29L539.578 28.6918C541.214 29.1981 542.99 28.6079 543.996 27.2236L550.654 18.0698C551.777 16.5266 554.217 17.2822 554.271 19.1897Z" stroke="white" stroke-width="2"/>
<path d="M1312.64 516.586L1312.71 519.1C1312.76 520.812 1313.89 522.302 1315.53 522.808L1317.73 523.491C1319.61 524.071 1319.61 526.72 1317.74 527.309L1315.87 527.901C1314.16 528.438 1313.02 530.042 1313.07 531.829L1313.13 533.92C1313.19 535.849 1310.75 536.729 1309.56 535.211L1307.92 533.124C1306.89 531.813 1305.16 531.276 1303.57 531.777L1301.04 532.574C1299.2 533.154 1297.69 531.05 1298.82 529.49L1300.06 527.798C1301.11 526.352 1301.07 524.384 1299.97 522.977L1298.76 521.43C1297.55 519.887 1299.05 517.706 1300.92 518.286L1303.13 518.969C1304.76 519.475 1306.54 518.885 1307.55 517.5L1309.03 515.466C1310.15 513.922 1312.59 514.678 1312.64 516.586Z" stroke="white" stroke-width="2"/>
<path d="M1695.64 146.548L1695.71 149.063C1695.76 150.774 1696.89 152.265 1698.53 152.771L1700.73 153.454C1702.61 154.034 1702.61 156.683 1700.74 157.272L1698.87 157.863C1697.16 158.401 1696.02 160.004 1696.07 161.791L1696.13 163.883C1696.19 165.811 1693.75 166.691 1692.56 165.173L1690.92 163.087C1689.89 161.775 1688.16 161.239 1686.57 161.74L1684.04 162.537C1682.2 163.117 1680.69 161.013 1681.82 159.453L1683.06 157.761C1684.11 156.315 1684.07 154.347 1682.97 152.94L1681.76 151.393C1680.55 149.85 1682.05 147.668 1683.92 148.248L1686.13 148.931C1687.76 149.438 1689.54 148.847 1690.55 147.463L1692.03 145.428C1693.15 143.885 1695.59 144.641 1695.64 146.548Z" stroke="white" stroke-width="2"/>
<path d="M1201.64 702.548L1201.71 705.063C1201.76 706.774 1202.89 708.265 1204.53 708.771L1206.73 709.454C1208.61 710.034 1208.61 712.683 1206.74 713.272L1204.87 713.863C1203.16 714.401 1202.02 716.004 1202.07 717.791L1202.13 719.883C1202.19 721.811 1199.75 722.691 1198.56 721.173L1196.92 719.087C1195.89 717.775 1194.16 717.239 1192.57 717.74L1190.04 718.537C1188.2 719.117 1186.69 717.013 1187.82 715.453L1189.06 713.761C1190.11 712.315 1190.07 710.347 1188.97 708.94L1187.76 707.393C1186.55 705.85 1188.05 703.668 1189.92 704.248L1192.13 704.931C1193.76 705.438 1195.54 704.847 1196.55 703.463L1198.03 701.428C1199.15 699.885 1201.59 700.641 1201.64 702.548Z" stroke="white" stroke-width="2"/>
<path d="M985.642 610.548L985.713 613.063C985.761 614.774 986.893 616.265 988.528 616.771L990.734 617.454C992.607 618.034 992.614 620.683 990.744 621.272L988.868 621.863C987.164 622.401 986.022 624.004 986.073 625.791L986.132 627.883C986.186 629.811 983.749 630.691 982.559 629.173L980.923 627.087C979.895 625.775 978.161 625.239 976.572 625.74L974.044 626.537C972.204 627.117 970.69 625.013 971.825 623.453L973.056 621.761C974.107 620.315 974.072 618.347 972.969 616.94L971.756 615.393C970.546 613.85 972.049 611.668 973.921 612.248L976.127 612.931C977.762 613.438 979.538 612.847 980.545 611.463L982.025 609.428C983.148 607.885 985.588 608.641 985.642 610.548Z" stroke="white" stroke-width="2"/>
<path d="M709.16 774.991C807.261 797.603 998.697 886.715 979.631 1062.27L-68.0001 1034.46L-50.2183 364.693C-19.3324 356.843 53.9468 359.856 99.9765 434.704C157.514 528.264 112.857 477.061 62.8568 551.76C12.8567 626.459 56.4165 643.621 189.538 603.14C322.659 562.659 177.949 662.853 364.998 625.805C552.047 588.756 319.74 672.62 505.833 671.559C654.708 670.709 589.497 710.459 538.282 730.44L709.16 774.991Z" stroke="white" stroke-width="2"/>
<path d="M686.16 877.991C784.261 900.603 975.697 989.715 956.631 1165.27L-91.0001 1137.46L-73.2183 467.693C-42.3324 459.843 30.9468 462.856 76.9765 537.704C134.514 631.264 89.8569 580.061 39.8568 654.76C-10.1433 729.459 33.4165 746.621 166.538 706.14C299.659 665.659 154.949 765.853 341.998 728.805C529.047 691.756 296.74 775.62 482.833 774.559C631.708 773.709 566.497 813.459 515.282 833.44L686.16 877.991Z" stroke="white" stroke-width="2"/>
<path d="M1163.64 840.136C1056.58 865.643 847.705 966.379 868.709 1165.27L2012.25 1134.91L1992.11 376.183C1958.39 367.257 1878.4 370.59 1828.24 455.327C1765.53 561.248 1814.22 503.294 1868.89 587.968C1923.55 672.642 1876.02 692.035 1730.66 646.033C1585.3 600.03 1743.37 713.689 1539.15 671.515C1334.93 629.341 1588.61 724.597 1385.47 723.191C1222.96 722.066 1294.19 767.166 1350.11 789.856L1163.64 840.136Z" stroke="white" stroke-width="2"/>
<path d="M1259.01 914.136C1151.95 939.643 943.08 1040.38 964.084 1239.27L2107.63 1208.91L2087.49 450.183C2053.76 441.257 1973.78 444.59 1923.61 529.327C1860.91 635.248 1909.6 577.294 1964.26 661.968C2018.92 746.642 1971.39 766.035 1826.03 720.033C1680.68 674.03 1838.75 787.689 1634.53 745.515C1430.31 703.341 1683.98 798.597 1480.85 797.191C1318.34 796.066 1389.56 841.166 1445.49 863.856L1259.01 914.136Z" stroke="white" stroke-width="2"/>
</svg>
