<svg width="81" height="45" viewBox="0 0 81 45" fill="none" xmlns="http://www.w3.org/2000/svg">
<path d="M26.564 10.1V9.4H25.75L25.8719 10.2048L26.564 10.1ZM31.781 10.1L32.4749 10.008L32.3943 9.4H31.781V10.1ZM35.165 35.621L34.4711 35.713L34.5517 36.321H35.165V35.621ZM35.259 35.621V36.321H35.8723L35.9529 35.713L35.259 35.621ZM38.643 10.1V9.4H38.0297L37.9491 10.008L38.643 10.1ZM43.39 10.1L44.0821 10.2048L44.204 9.4H43.39V10.1ZM38.408 43V43.7H39.01L39.1001 43.1048L38.408 43ZM31.546 43L30.8539 43.1048L30.944 43.7H31.546V43ZM26.564 10.8H31.781V9.4H26.564V10.8ZM31.0871 10.192L34.4711 35.713L35.8589 35.529L32.4749 10.008L31.0871 10.192ZM35.165 36.321H35.259V34.921H35.165V36.321ZM35.9529 35.713L39.3369 10.192L37.9491 10.008L34.5651 35.529L35.9529 35.713ZM38.643 10.8H43.39V9.4H38.643V10.8ZM42.6979 9.99519L37.7159 42.8952L39.1001 43.1048L44.0821 10.2048L42.6979 9.99519ZM38.408 42.3H31.546V43.7H38.408V42.3ZM32.2381 42.8952L27.2561 9.99519L25.8719 10.2048L30.8539 43.1048L32.2381 42.8952ZM45.8733 10.1V9.4H45.1733V10.1H45.8733ZM59.9733 10.1H60.6733V9.4H59.9733V10.1ZM59.9733 14.8V15.5H60.6733V14.8H59.9733ZM51.0433 14.8V14.1H50.3433V14.8H51.0433ZM51.0433 23.495H50.3433V24.195H51.0433V23.495ZM58.1403 23.495H58.8403V22.795H58.1403V23.495ZM58.1403 28.195V28.895H58.8403V28.195H58.1403ZM51.0433 28.195V27.495H50.3433V28.195H51.0433ZM51.0433 38.3H50.3433V39H51.0433V38.3ZM59.9733 38.3H60.6733V37.6H59.9733V38.3ZM59.9733 43V43.7H60.6733V43H59.9733ZM45.8733 43H45.1733V43.7H45.8733V43ZM45.8733 10.8H59.9733V9.4H45.8733V10.8ZM59.2733 10.1V14.8H60.6733V10.1H59.2733ZM59.9733 14.1H51.0433V15.5H59.9733V14.1ZM50.3433 14.8V23.495H51.7433V14.8H50.3433ZM51.0433 24.195H58.1403V22.795H51.0433V24.195ZM57.4403 23.495V28.195H58.8403V23.495H57.4403ZM58.1403 27.495H51.0433V28.895H58.1403V27.495ZM50.3433 28.195V38.3H51.7433V28.195H50.3433ZM51.0433 39H59.9733V37.6H51.0433V39ZM59.2733 38.3V43H60.6733V38.3H59.2733ZM59.9733 42.3H45.8733V43.7H59.9733V42.3ZM46.5733 43V10.1H45.1733V43H46.5733ZM62.9475 10.1V9.4H62.2475V10.1H62.9475ZM76.4365 11.98L75.9353 12.4687L75.9415 12.475L76.4365 11.98ZM74.8855 26.174L74.624 25.5247L74.1855 25.7013V26.174H74.8855ZM74.8855 26.268H74.1855V26.7888L74.6844 26.9385L74.8855 26.268ZM77.5175 28.571L76.875 28.8488L76.8781 28.8561L76.8814 28.8632L77.5175 28.571ZM78.4105 41.308L77.7143 41.3813L77.7148 41.3853L78.4105 41.308ZM78.8805 43V43.7H79.9576L79.5202 42.7157L78.8805 43ZM73.6165 43L72.9564 43.233L73.1212 43.7H73.6165V43ZM72.3945 29.793L71.8451 30.2268L71.8519 30.2354L71.8591 30.2439L72.3945 29.793ZM68.1175 28.9V28.2H67.4175V28.9H68.1175ZM68.1175 43V43.7H68.8175V43H68.1175ZM62.9475 43H62.2475V43.7H62.9475V43ZM72.3005 23.401L71.8055 22.906L71.798 22.9135L71.7908 22.9212L72.3005 23.401ZM72.4415 15.599L71.8855 16.0242L71.8931 16.0342L71.9012 16.044L72.4415 15.599ZM68.1175 14.8V14.1H67.4175V14.8H68.1175ZM68.1175 24.2H67.4175V24.9H68.1175V24.2ZM62.9475 10.8H70.6085V9.4H62.9475V10.8ZM70.6085 10.8C73.1802 10.8 74.9001 11.407 75.9353 12.4687L76.9377 11.4913C75.5289 10.0464 73.3635 9.4 70.6085 9.4V10.8ZM75.9415 12.475C76.9802 13.5136 77.5695 15.1937 77.5695 17.667H78.9695C78.9695 15.0016 78.3368 12.8904 76.9315 11.485L75.9415 12.475ZM77.5695 17.667V19.688H78.9695V17.667H77.5695ZM77.5695 19.688C77.5695 21.3255 77.2981 22.5981 76.8029 23.5472C76.3158 24.4808 75.5969 25.1328 74.624 25.5247L75.147 26.8233C76.4301 26.3065 77.4032 25.4232 78.0441 24.1948C78.6769 22.9819 78.9695 21.4659 78.9695 19.688H77.5695ZM74.1855 26.174V26.268H75.5855V26.174H74.1855ZM74.6844 26.9385C75.748 27.2576 76.459 27.8868 76.875 28.8488L78.16 28.2932C77.5734 26.9365 76.5296 26.0304 75.0867 25.5975L74.6844 26.9385ZM76.8814 28.8632C77.3558 29.8957 77.6165 31.3345 77.6165 33.224H79.0165C79.0165 31.2282 78.7446 29.565 78.1536 28.2787L76.8814 28.8632ZM77.6165 33.224V39.005H79.0165V33.224H77.6165ZM77.6165 39.005C77.6165 39.9574 77.6481 40.752 77.7144 41.3813L79.1067 41.2347C79.0476 40.6734 79.0165 39.9326 79.0165 39.005H77.6165ZM77.7148 41.3853C77.7861 42.0267 77.9635 42.6603 78.2408 43.2843L79.5202 42.7157C79.2962 42.2117 79.1603 41.7173 79.1062 41.2307L77.7148 41.3853ZM78.8805 42.3H73.6165V43.7H78.8805V42.3ZM74.2766 42.767C74.1017 42.2715 73.9896 41.8176 73.9344 41.4035L72.5466 41.5885C72.6168 42.1144 72.7553 42.6631 72.9564 43.233L74.2766 42.767ZM73.9344 41.4035C73.8786 40.9853 73.8465 40.1825 73.8465 38.958H72.4465C72.4465 40.1775 72.4771 41.0667 72.5466 41.5885L73.9344 41.4035ZM73.8465 38.958V32.942H72.4465V38.958H73.8465ZM73.8465 32.942C73.8465 31.4057 73.5996 30.1374 72.9299 29.3421L71.8591 30.2439C72.192 30.6393 72.4465 31.4703 72.4465 32.942H73.8465ZM72.9439 29.3592C72.2801 28.5184 71.1854 28.2 69.9035 28.2V29.6C71.003 29.6 71.5689 29.8769 71.8451 30.2268L72.9439 29.3592ZM69.9035 28.2H68.1175V29.6H69.9035V28.2ZM67.4175 28.9V43H68.8175V28.9H67.4175ZM68.1175 42.3H62.9475V43.7H68.1175V42.3ZM63.6475 43V10.1H62.2475V43H63.6475ZM69.9975 24.9C71.143 24.9 72.1296 24.604 72.8102 23.8808L71.7908 22.9212C71.4688 23.2634 70.92 23.5 69.9975 23.5V24.9ZM72.7955 23.896C73.5237 23.1678 73.7995 22.0444 73.7995 20.722H72.3995C72.3995 21.9063 72.1427 22.5689 71.8055 22.906L72.7955 23.896ZM73.7995 20.722V18.184H72.3995V20.722H73.7995ZM73.7995 18.184C73.7995 16.9378 73.5757 15.8751 72.9819 15.154L71.9012 16.044C72.1846 16.3882 72.3995 17.0489 72.3995 18.184H73.7995ZM72.9976 15.1738C72.4143 14.4111 71.511 14.1 70.4675 14.1V15.5C71.2413 15.5 71.654 15.7216 71.8855 16.0242L72.9976 15.1738ZM70.4675 14.1H68.1175V15.5H70.4675V14.1ZM67.4175 14.8V24.2H68.8175V14.8H67.4175ZM68.1175 24.9H69.9975V23.5H68.1175V24.9Z" fill="url(#paint0_linear_553_6484)"/>
<path d="M23.4113 15.294C23.0735 13.512 27.643 23.105 24.0475 28.4037C20.4519 33.7024 11.0139 32.8039 11.1387 24.6172C11.1599 22.6202 13.1989 30.0225 18.1035 28.7194C24.5651 27.0703 24.0422 18.4104 23.4113 15.294Z" fill="#BCA4FF"/>
<path d="M13.0632 5.46582C13.8267 4.0636 14.6936 2.88077 15.421 2C15.3854 2.53958 15.4099 3.05741 15.4898 3.55901C15.6804 4.75617 16.1788 5.81542 16.8482 6.8194C17.5133 7.81678 18.3631 8.78215 19.2711 9.7819C19.4184 9.94407 19.5673 10.1073 19.7177 10.272C20.5033 11.1328 21.3274 12.0357 22.1496 13.0479C26.0782 17.8839 30.2884 26.2363 26.6388 34.6163C24.8468 38.7311 20.3904 41.7075 15.5883 42.6098C10.7951 43.5104 5.85093 42.3143 3.01015 38.3465C0.166207 34.3742 0.736616 29.441 2.28546 25.1323C3.08561 22.9064 4.13028 20.8958 5.0403 19.3467C5.00578 19.5432 4.97355 19.7432 4.94457 19.9455C4.76633 21.1897 4.70012 22.5854 5.0171 23.787C5.3421 25.0191 6.09042 26.0967 7.53141 26.5239C9.12512 27.0158 11.0478 26.2199 12.1637 24.5686C13.3099 22.8725 13.6174 20.3079 12.185 17.1489L12.1844 17.1475C10.1957 12.7892 11.3474 8.61706 13.0632 5.46582Z" stroke="url(#paint1_linear_553_6484)" stroke-width="1.30556"/>
<defs>
<linearGradient id="paint0_linear_553_6484" x1="26" y1="1" x2="86.4777" y2="35.358" gradientUnits="userSpaceOnUse">
<stop stop-color="#7433FF"/>
<stop offset="1" stop-color="#BCA4FF"/>
</linearGradient>
<linearGradient id="paint1_linear_553_6484" x1="-10.8377" y1="15.3022" x2="31.5094" y2="8.56797" gradientUnits="userSpaceOnUse">
<stop stop-color="#BCA4FF"/>
<stop offset="1" stop-color="#7433FF"/>
</linearGradient>
</defs>
</svg>
