<svg width="94" height="61" viewBox="0 0 94 61" fill="none" xmlns="http://www.w3.org/2000/svg">
<path d="M37.5071 9.4147V8.4147H36.3443L36.5184 9.56442L37.5071 9.4147ZM42.7241 9.4147L43.7154 9.28325L43.6003 8.4147H42.7241V9.4147ZM46.1081 34.9357L45.1168 35.0671L45.232 35.9357H46.1081V34.9357ZM46.2021 34.9357V35.9357H47.0783L47.1934 35.0671L46.2021 34.9357ZM49.5861 9.4147V8.4147H48.71L48.5948 9.28325L49.5861 9.4147ZM54.3331 9.4147L55.3218 9.56442L55.4959 8.4147H54.3331V9.4147ZM49.3511 42.3147V43.3147H50.2111L50.3398 42.4644L49.3511 42.3147ZM42.4891 42.3147L41.5004 42.4644L41.6291 43.3147H42.4891V42.3147ZM37.5071 10.4147H42.7241V8.4147H37.5071V10.4147ZM41.7328 9.54614L45.1168 35.0671L47.0994 34.8043L43.7154 9.28325L41.7328 9.54614ZM46.1081 35.9357H46.2021V33.9357H46.1081V35.9357ZM47.1934 35.0671L50.5774 9.54614L48.5948 9.28325L45.2108 34.8043L47.1934 35.0671ZM49.5861 10.4147H54.3331V8.4147H49.5861V10.4147ZM53.3444 9.26497L48.3624 42.165L50.3398 42.4644L55.3218 9.56442L53.3444 9.26497ZM49.3511 41.3147H42.4891V43.3147H49.3511V41.3147ZM43.4778 42.165L38.4958 9.26497L36.5184 9.56442L41.5004 42.4644L43.4778 42.165ZM56.8164 9.4147V8.4147H55.8164V9.4147H56.8164ZM70.9164 9.4147H71.9164V8.4147H70.9164V9.4147ZM70.9164 14.1147V15.1147H71.9164V14.1147H70.9164ZM61.9864 14.1147V13.1147H60.9864V14.1147H61.9864ZM61.9864 22.8097H60.9864V23.8097H61.9864V22.8097ZM69.0834 22.8097H70.0834V21.8097H69.0834V22.8097ZM69.0834 27.5097V28.5097H70.0834V27.5097H69.0834ZM61.9864 27.5097V26.5097H60.9864V27.5097H61.9864ZM61.9864 37.6147H60.9864V38.6147H61.9864V37.6147ZM70.9164 37.6147H71.9164V36.6147H70.9164V37.6147ZM70.9164 42.3147V43.3147H71.9164V42.3147H70.9164ZM56.8164 42.3147H55.8164V43.3147H56.8164V42.3147ZM56.8164 10.4147H70.9164V8.4147H56.8164V10.4147ZM69.9164 9.4147V14.1147H71.9164V9.4147H69.9164ZM70.9164 13.1147H61.9864V15.1147H70.9164V13.1147ZM60.9864 14.1147V22.8097H62.9864V14.1147H60.9864ZM61.9864 23.8097H69.0834V21.8097H61.9864V23.8097ZM68.0834 22.8097V27.5097H70.0834V22.8097H68.0834ZM69.0834 26.5097H61.9864V28.5097H69.0834V26.5097ZM60.9864 27.5097V37.6147H62.9864V27.5097H60.9864ZM61.9864 38.6147H70.9164V36.6147H61.9864V38.6147ZM69.9164 37.6147V42.3147H71.9164V37.6147H69.9164ZM70.9164 41.3147H56.8164V43.3147H70.9164V41.3147ZM57.8164 42.3147V9.4147H55.8164V42.3147H57.8164ZM73.8906 9.4147V8.4147H72.8906V9.4147H73.8906ZM87.3796 11.2947L86.6636 11.9929L86.6725 12.0018L87.3796 11.2947ZM85.8286 25.4887L85.455 24.5611L84.8286 24.8134V25.4887H85.8286ZM85.8286 25.5827H84.8286V26.3267L85.5413 26.5405L85.8286 25.5827ZM88.4606 27.8857L87.5428 28.2826L87.5472 28.293L87.5519 28.3032L88.4606 27.8857ZM89.3536 40.6227L88.3591 40.7274L88.3597 40.7331L89.3536 40.6227ZM89.8236 42.3147V43.3147H91.3624L90.7374 41.9086L89.8236 42.3147ZM84.5596 42.3147L83.6166 42.6475L83.8521 43.3147H84.5596V42.3147ZM83.3376 29.1077L82.5527 29.7273L82.5625 29.7397L82.5727 29.7518L83.3376 29.1077ZM79.0606 28.2147V27.2147H78.0606V28.2147H79.0606ZM79.0606 42.3147V43.3147H80.0606V42.3147H79.0606ZM73.8906 42.3147H72.8906V43.3147H73.8906V42.3147ZM83.2436 22.7157L82.5365 22.0086L82.5258 22.0193L82.5154 22.0303L83.2436 22.7157ZM83.3846 14.9137L82.5903 15.5211L82.6012 15.5355L82.6127 15.5494L83.3846 14.9137ZM79.0606 14.1147V13.1147H78.0606V14.1147H79.0606ZM79.0606 23.5147H78.0606V24.5147H79.0606V23.5147ZM73.8906 10.4147H81.5516V8.4147H73.8906V10.4147ZM81.5516 10.4147C84.084 10.4147 85.7085 11.0132 86.6636 11.9928L88.0956 10.5966C86.6067 9.06951 84.3459 8.4147 81.5516 8.4147V10.4147ZM86.6725 12.0018C87.6326 12.9619 88.2126 14.5496 88.2126 16.9817H90.2126C90.2126 14.2752 89.5707 12.0715 88.0867 10.5876L86.6725 12.0018ZM88.2126 16.9817V19.0027H90.2126V16.9817H88.2126ZM88.2126 19.0027C88.2126 20.6101 87.9457 21.8305 87.48 22.7231C87.0259 23.5936 86.3615 24.196 85.455 24.5611L86.2022 26.4163C87.5518 25.8727 88.5794 24.9398 89.2532 23.6483C89.9155 22.3789 90.2126 20.8106 90.2126 19.0027H88.2126ZM84.8286 25.4887V25.5827H86.8286V25.4887H84.8286ZM85.5413 26.5405C86.5237 26.8352 87.1633 27.4051 87.5428 28.2826L89.3785 27.4888C88.7553 26.0476 87.6403 25.0822 86.116 24.6249L85.5413 26.5405ZM87.5519 28.3032C88.0013 29.2812 88.2596 30.672 88.2596 32.5387H90.2596C90.2596 30.5201 89.9853 28.8088 89.3693 27.4682L87.5519 28.3032ZM88.2596 32.5387V38.3197H90.2596V32.5387H88.2596ZM88.2596 38.3197C88.2596 39.2774 88.2913 40.0835 88.3591 40.7274L90.3481 40.518C90.2906 39.9712 90.2596 39.242 90.2596 38.3197H88.2596ZM88.3597 40.7331C88.4347 41.4078 88.6211 42.0712 88.9098 42.7208L90.7374 41.9086C90.5248 41.4302 90.3979 40.9656 90.3475 40.5123L88.3597 40.7331ZM89.8236 41.3147H84.5596V43.3147H89.8236V41.3147ZM85.5026 41.9819C85.3334 41.5023 85.2269 41.0687 85.1749 40.6785L83.1924 40.9429C83.2657 41.4927 83.4099 42.0618 83.6166 42.6475L85.5026 41.9819ZM85.1749 40.6785C85.1221 40.2826 85.0896 39.4982 85.0896 38.2727H83.0896C83.0896 39.4912 83.1199 40.3988 83.1924 40.9429L85.1749 40.6785ZM85.0896 38.2727V32.2567H83.0896V38.2727H85.0896ZM85.0896 32.2567C85.0896 30.7065 84.8444 29.3445 84.1025 28.4636L82.5727 29.7518C82.8335 30.0615 83.0896 30.7989 83.0896 32.2567H85.0896ZM84.1225 28.4881C83.3756 27.542 82.1676 27.2147 80.8466 27.2147V29.2147C81.907 29.2147 82.3596 29.4827 82.5527 29.7273L84.1225 28.4881ZM80.8466 27.2147H79.0606V29.2147H80.8466V27.2147ZM78.0606 28.2147V42.3147H80.0606V28.2147H78.0606ZM79.0606 41.3147H73.8906V43.3147H79.0606V41.3147ZM74.8906 42.3147V9.4147H72.8906V42.3147H74.8906ZM80.9406 24.5147C82.1339 24.5147 83.2143 24.2059 83.9718 23.4011L82.5154 22.0303C82.2703 22.2908 81.8153 22.5147 80.9406 22.5147V24.5147ZM83.9507 23.4228C84.7627 22.6108 85.0426 21.3887 85.0426 20.0367H83.0426C83.0426 21.1914 82.7899 21.7552 82.5365 22.0086L83.9507 23.4228ZM85.0426 20.0367V17.4987H83.0426V20.0367H85.0426ZM85.0426 17.4987C85.0426 16.2286 84.8169 15.0798 84.1566 14.278L82.6127 15.5494C82.8297 15.8129 83.0426 16.3874 83.0426 17.4987H85.0426ZM84.179 14.3062C83.5204 13.445 82.5119 13.1147 81.4106 13.1147V15.1147C82.1266 15.1147 82.4342 15.3171 82.5903 15.5211L84.179 14.3062ZM81.4106 13.1147H79.0606V15.1147H81.4106V13.1147ZM78.0606 14.1147V23.5147H80.0606V14.1147H78.0606ZM79.0606 24.5147H80.9406V22.5147H79.0606V24.5147Z" fill="url(#paint0_linear_195:9512)"/>
<path d="M34.5541 17.7024C34.2164 15.823 38.7858 25.9406 35.1903 31.5291C31.5947 37.1176 22.1567 36.1699 22.2816 27.5355C22.3027 25.4293 24.3417 33.2364 29.2463 31.8621C35.7079 30.1227 35.1851 20.9893 34.5541 17.7024Z" fill="#BCA4FF"/>
<path d="M26.3923 1.85357C26.4209 1.81826 26.4493 1.78354 26.4773 1.74938C26.3759 2.51778 26.3839 3.23919 26.4879 3.92821C26.6732 5.15554 27.158 6.24639 27.8176 7.28958C28.474 8.32794 29.3152 9.3364 30.2235 10.3912C30.3702 10.5615 30.5188 10.7332 30.6689 10.9067C31.4546 11.8146 32.2827 12.7716 33.1086 13.8438C37.0524 18.9642 41.3138 27.8522 37.6253 36.7848C35.8077 41.1866 31.302 44.3499 26.4658 45.3083C21.6384 46.2649 16.6153 45.0017 13.7197 40.7362C10.8217 36.467 11.4165 31.1855 12.9704 26.6262C13.9224 23.8331 15.2182 21.361 16.2256 19.6424C16.1203 20.1495 16.0201 20.6997 15.9432 21.2666C15.766 22.5711 15.7037 24.0133 16.0114 25.2436C16.3244 26.4948 17.0353 27.5676 18.4043 27.9953C19.9168 28.4882 21.7781 27.6932 22.8665 25.9946C23.9755 24.2638 24.2875 21.6283 22.8765 18.3462L22.876 18.3451C20.8536 13.6707 22.0312 9.20595 23.7582 5.86059C24.6209 4.18959 25.6139 2.81294 26.3923 1.85357Z" stroke="url(#paint1_linear_195:9512)"/>
<defs>
<linearGradient id="paint0_linear_195:9512" x1="14.3611" y1="0.314697" x2="99.7273" y2="51.3137" gradientUnits="userSpaceOnUse">
<stop stop-color="#7433FF"/>
<stop offset="1" stop-color="#BCA4FF"/>
</linearGradient>
<linearGradient id="paint1_linear_195:9512" x1="0" y1="16.3313" x2="42.4529" y2="9.93032" gradientUnits="userSpaceOnUse">
<stop stop-color="#7433FF"/>
<stop offset="1" stop-color="#BCA4FF"/>
</linearGradient>
</defs>
</svg>
