<svg width="79" height="44" viewBox="0 0 79 44" fill="none" xmlns="http://www.w3.org/2000/svg">
<path d="M39.1582 10.0513H42.5742L37.7899 41.6457H32.0506L27.2663 10.0513H31.1523L34.4611 35.0053L34.5363 35.5723H35.1082H35.2022H35.7742L35.8493 35.0053L39.1582 10.0513ZM12.901 5.64815C13.6645 4.24593 14.5315 3.0631 15.2588 2.18233C15.2232 2.72191 15.2477 3.23974 15.3276 3.74134C15.5182 4.93851 16.0166 5.99775 16.686 7.00173C17.3511 7.99911 18.2009 8.96448 19.1089 9.96423C19.2562 10.1264 19.4051 10.2895 19.5555 10.4543C20.3411 11.3151 21.1652 12.218 21.9874 13.2302C22.687 14.0913 23.3954 15.0639 24.0669 16.1283C24.0173 16.08 23.944 16.0199 23.8487 15.9765C23.7598 15.9359 23.5865 15.8806 23.3785 15.9403C23.1571 16.0039 23.0302 16.1584 22.9692 16.2729C22.8749 16.4498 22.8822 16.6266 22.8842 16.6738L22.8843 16.6767C22.8875 16.7555 22.8994 16.8349 22.9129 16.9062L22.9128 16.9062L22.9145 16.9141C23.2188 18.4176 23.4949 21.2652 22.9221 23.9093C22.3514 26.5432 20.9802 28.8386 18.085 29.5775L18.085 29.5775L18.0788 29.5791C16.031 30.1232 14.5379 28.8905 13.4468 27.4964C13.0675 27.0117 12.7782 26.5637 12.5337 26.1852C12.4236 26.0147 12.3226 25.8583 12.2266 25.7191C12.1554 25.6159 12.0764 25.5073 11.9957 25.4182C11.9553 25.3736 11.8999 25.3175 11.8312 25.2666C11.7986 25.2424 11.7475 25.2077 11.6802 25.1772C11.7933 25.0423 11.9007 24.9001 12.0016 24.7509C13.1477 23.0548 13.4553 20.4902 12.0228 17.3312L12.0222 17.3298C10.0335 12.9715 11.1853 8.79939 12.901 5.64815ZM24.6134 17.0713C24.5856 17.0085 24.5574 16.9466 24.5291 16.8863C27.3856 21.7345 29.3251 28.2582 26.4766 34.7986C24.6846 38.9134 20.2282 41.8898 15.4261 42.7921C10.6329 43.6927 5.68873 42.4966 2.84795 38.5288C0.00400633 34.5565 0.574416 29.6233 2.12326 25.3146C2.92341 23.0887 3.96808 21.0781 4.8781 19.529C4.84358 19.7255 4.81135 19.9255 4.78237 20.1278C4.60413 21.372 4.53792 22.7677 4.8549 23.9693C5.1799 25.2014 5.92822 26.279 7.36919 26.7062C8.42121 27.031 9.61658 26.7945 10.6286 26.1213C10.6001 28.2871 11.2035 30.024 12.2309 31.3065C13.2596 32.5906 14.6797 33.3768 16.207 33.697C19.2413 34.3331 22.774 33.1442 24.7306 30.2609C26.6906 27.3725 26.3887 23.4097 25.7303 20.5383C25.3959 19.0803 24.9558 17.8426 24.6134 17.0713ZM50.9865 38.2513H59.2637V41.6457H46.4693V10.0513H59.2637V13.4457H50.9865H50.3337V14.0985V22.7935V23.4463H50.9865H57.4307V26.8407H50.9865H50.3337V27.4935V37.5985V38.2513H50.9865ZM77.7049 40.6786C77.741 41.0029 77.8044 41.3254 77.8944 41.6457H74.0344C73.9371 41.3135 73.8699 41.0012 73.8308 40.7082C73.7746 40.2865 73.7425 39.4808 73.7425 38.2565V32.2405C73.7425 30.7115 73.4971 29.4613 72.8437 28.679C72.1923 27.8607 71.1183 27.5457 69.8467 27.5457H68.0607H67.408V28.1985V41.6457H63.5435V10.0513H70.5517C73.1296 10.0513 74.8646 10.6596 75.9123 11.7342L75.9181 11.7401C76.9692 12.7911 77.56 14.4857 77.56 16.9655V18.9865C77.56 20.6287 77.2878 21.9095 76.788 22.8675C76.2957 23.8111 75.5682 24.4709 74.5849 24.867L74.176 25.0317V25.4725V25.5665V26.0522L74.6412 26.1917C75.7176 26.5147 76.4398 27.1532 76.8616 28.1286L76.8645 28.1353L76.8676 28.142C77.3459 29.183 77.607 30.6294 77.607 32.5225V38.3035C77.607 39.255 77.6385 40.0478 77.7045 40.6748L77.7049 40.6786ZM68.0607 13.4457H67.408V14.0985V23.4985V24.1513H68.0607H69.9407C71.0748 24.1513 72.0439 23.8592 72.7122 23.1541C73.4221 22.4389 73.6955 21.334 73.6955 20.0205V17.4825C73.6955 16.2453 73.4739 15.1999 72.8961 14.4916C72.3245 13.7512 71.4408 13.4457 70.4107 13.4457H68.0607ZM13.2498 30.4902C12.6997 29.8035 12.28 28.9261 12.074 27.8397C12.1831 27.9921 12.2984 28.1473 12.4187 28.301C13.5781 29.7825 15.5558 31.5986 18.4109 30.8418C21.9752 29.9307 23.5726 27.0724 24.198 24.1858C24.4106 23.2045 24.5157 22.2041 24.549 21.2479C25.1145 23.9738 25.2055 27.2358 23.6502 29.5278C22.0113 31.9431 19.0272 32.9543 16.4748 32.4192C15.2088 32.1538 14.068 31.5115 13.2498 30.4902Z" stroke="url(#paint0_linear_284:4417)" stroke-width="1.30556"/>
<defs>
<linearGradient id="paint0_linear_284:4417" x1="0.185059" y1="0" x2="68.756" y2="56.0455" gradientUnits="userSpaceOnUse">
<stop stop-color="#7433FF"/>
<stop offset="1" stop-color="#BCA4FF"/>
</linearGradient>
</defs>
</svg>
