<svg width="94" height="58" viewBox="0 0 94 58" fill="none" xmlns="http://www.w3.org/2000/svg">
<path d="M37.5071 9.3987V8.09315H35.989L36.2163 9.59417L37.5071 9.3987ZM42.7241 9.3987L44.0183 9.22709L43.868 8.09315H42.7241V9.3987ZM46.1081 34.9197L44.8139 35.0913L44.9642 36.2253H46.1081V34.9197ZM46.2021 34.9197V36.2253H47.346L47.4963 35.0913L46.2021 34.9197ZM49.5861 9.3987V8.09315H48.4422L48.2919 9.22709L49.5861 9.3987ZM54.3331 9.3987L55.624 9.59417L55.8513 8.09315H54.3331V9.3987ZM49.3511 42.2987V43.6043H50.4739L50.642 42.4942L49.3511 42.2987ZM42.4891 42.2987L41.1983 42.4942L41.3664 43.6043H42.4891V42.2987ZM37.5071 10.7043H42.7241V8.09315H37.5071V10.7043ZM41.4299 9.57031L44.8139 35.0913L47.4023 34.7481L44.0183 9.22709L41.4299 9.57031ZM46.1081 36.2253H46.2021V33.6142H46.1081V36.2253ZM47.4963 35.0913L50.8803 9.57031L48.2919 9.22709L44.9079 34.7481L47.4963 35.0913ZM49.5861 10.7043H54.3331V8.09315H49.5861V10.7043ZM53.0423 9.20323L48.0603 42.1032L50.642 42.4942L55.624 9.59417L53.0423 9.20323ZM49.3511 40.9932H42.4891V43.6043H49.3511V40.9932ZM43.78 42.1032L38.798 9.20323L36.2163 9.59417L41.1983 42.4942L43.78 42.1032ZM56.8164 9.3987V8.09315H55.5108V9.3987H56.8164ZM70.9164 9.3987H72.222V8.09315H70.9164V9.3987ZM70.9164 14.0987V15.4043H72.222V14.0987H70.9164ZM61.9864 14.0987V12.7931H60.6808V14.0987H61.9864ZM61.9864 22.7937H60.6808V24.0993H61.9864V22.7937ZM69.0834 22.7937H70.389V21.4881H69.0834V22.7937ZM69.0834 27.4937V28.7993H70.389V27.4937H69.0834ZM61.9864 27.4937V26.1881H60.6808V27.4937H61.9864ZM61.9864 37.5987H60.6808V38.9043H61.9864V37.5987ZM70.9164 37.5987H72.222V36.2932H70.9164V37.5987ZM70.9164 42.2987V43.6043H72.222V42.2987H70.9164ZM56.8164 42.2987H55.5108V43.6043H56.8164V42.2987ZM56.8164 10.7043H70.9164V8.09315H56.8164V10.7043ZM69.6108 9.3987V14.0987H72.222V9.3987H69.6108ZM70.9164 12.7931H61.9864V15.4043H70.9164V12.7931ZM60.6808 14.0987V22.7937H63.292V14.0987H60.6808ZM61.9864 24.0993H69.0834V21.4881H61.9864V24.0993ZM67.7778 22.7937V27.4937H70.389V22.7937H67.7778ZM69.0834 26.1881H61.9864V28.7993H69.0834V26.1881ZM60.6808 27.4937V37.5987H63.292V27.4937H60.6808ZM61.9864 38.9043H70.9164V36.2932H61.9864V38.9043ZM69.6108 37.5987V42.2987H72.222V37.5987H69.6108ZM70.9164 40.9932H56.8164V43.6043H70.9164V40.9932ZM58.122 42.2987V9.3987H55.5108V42.2987H58.122ZM73.8906 9.3987V8.09315H72.5851V9.3987H73.8906ZM87.3796 11.2787L86.4448 12.1901L86.4506 12.196L86.4565 12.2019L87.3796 11.2787ZM85.8286 25.4727L85.3409 24.2617L84.5231 24.5911V25.4727H85.8286ZM85.8286 25.5667H84.5231V26.5381L85.4535 26.8172L85.8286 25.5667ZM88.4606 27.8697L87.2623 28.3879L87.2682 28.4014L87.2743 28.4148L88.4606 27.8697ZM89.3536 40.6067L88.0552 40.7434L88.0561 40.7509L89.3536 40.6067ZM89.8236 42.2987V43.6043H91.8326L91.0167 41.7685L89.8236 42.2987ZM84.5596 42.2987L83.3285 42.7332L83.6359 43.6043H84.5596V42.2987ZM83.3376 29.0917L82.3129 29.9007L82.3257 29.9169L82.339 29.9327L83.3376 29.0917ZM79.0606 28.1987V26.8931H77.7551V28.1987H79.0606ZM79.0606 42.2987V43.6043H80.3662V42.2987H79.0606ZM73.8906 42.2987H72.5851V43.6043H73.8906V42.2987ZM83.2436 22.6997L82.3205 21.7765L82.3065 21.7905L82.2929 21.8049L83.2436 22.6997ZM83.3846 14.8977L82.3475 15.6908L82.3619 15.7095L82.3768 15.7277L83.3846 14.8977ZM79.0606 14.0987V12.7931H77.7551V14.0987H79.0606ZM79.0606 23.4987H77.7551V24.8043H79.0606V23.4987ZM73.8906 10.7043H81.5516V8.09315H73.8906V10.7043ZM81.5516 10.7043C84.044 10.7043 85.5713 11.2942 86.4448 12.1901L88.3144 10.3673C86.7439 8.75656 84.3859 8.09315 81.5516 8.09315V10.7043ZM86.4565 12.2019C87.3365 13.0819 87.9071 14.5755 87.9071 16.9657H90.5182C90.5182 14.2173 89.8668 11.9195 88.3028 10.3555L86.4565 12.2019ZM87.9071 16.9657V18.9867H90.5182V16.9657H87.9071ZM87.9071 18.9867C87.9071 20.5635 87.6448 21.7308 87.2091 22.5658C86.7885 23.3719 86.1796 23.9239 85.3409 24.2617L86.3164 26.6837C87.7336 26.1129 88.8167 25.1295 89.5241 23.7736C90.2164 22.4466 90.5182 20.8253 90.5182 18.9867H87.9071ZM84.5231 25.4727V25.5667H87.1342V25.4727H84.5231ZM85.4535 26.8172C86.3531 27.0871 86.9201 27.5965 87.2623 28.3879L89.6589 27.3515C88.9985 25.8242 87.8108 24.7983 86.2038 24.3162L85.4535 26.8172ZM87.2743 28.4148C87.6982 29.3374 87.9541 30.6792 87.9541 32.5227H90.5652C90.5652 30.4809 90.2884 28.7207 89.647 27.3246L87.2743 28.4148ZM87.9541 32.5227V38.3037H90.5652V32.5227H87.9541ZM87.9541 38.3037C87.9541 39.2668 87.9859 40.0847 88.0552 40.7434L90.652 40.47C90.596 39.938 90.5652 39.2206 90.5652 38.3037H87.9541ZM88.0561 40.7509C88.1348 41.4593 88.3302 42.1531 88.6306 42.8289L91.0167 41.7685C90.8157 41.3163 90.6978 40.8821 90.6512 40.4625L88.0561 40.7509ZM89.8236 40.9932H84.5596V43.6043H89.8236V40.9932ZM85.7908 41.8642C85.6272 41.4008 85.5265 40.9879 85.4777 40.6222L82.8895 40.9673C82.9661 41.5415 83.116 42.1312 83.3285 42.7332L85.7908 41.8642ZM85.4777 40.6222C85.4279 40.2488 85.3952 39.4833 85.3952 38.2567H82.7841C82.7841 39.4741 82.814 40.4006 82.8895 40.9673L85.4777 40.6222ZM85.3952 38.2567V32.2407H82.7841V38.2567H85.3952ZM85.3952 32.2407C85.3952 30.6764 85.1516 29.219 84.3363 28.2507L82.339 29.9327C82.5263 30.1551 82.7841 30.797 82.7841 32.2407H85.3952ZM84.3623 28.2827C83.5309 27.2295 82.2074 26.8931 80.8466 26.8931V29.5043C81.8672 29.5043 82.2044 29.7632 82.3129 29.9007L84.3623 28.2827ZM80.8466 26.8931H79.0606V29.5043H80.8466V26.8931ZM77.7551 28.1987V42.2987H80.3662V28.1987H77.7551ZM79.0606 40.9932H73.8906V43.6043H79.0606V40.9932ZM75.1962 42.2987V9.3987H72.5851V42.2987H75.1962ZM80.9406 24.8043C82.1826 24.8043 83.3585 24.4825 84.1943 23.5945L82.2929 21.8049C82.126 21.9822 81.7666 22.1932 80.9406 22.1932V24.8043ZM84.1668 23.6229C85.0641 22.7256 85.3482 21.4028 85.3482 20.0207H82.7371C82.7371 21.1453 82.4885 21.6085 82.3205 21.7765L84.1668 23.6229ZM85.3482 20.0207V17.4827H82.7371V20.0207H85.3482ZM85.3482 17.4827C85.3482 16.1884 85.1205 14.9519 84.3924 14.0678L82.3768 15.7277C82.5261 15.9089 82.7371 16.3957 82.7371 17.4827H85.3482ZM84.4217 14.1046C83.6863 13.143 82.5708 12.7931 81.4106 12.7931V15.4043C82.0678 15.4043 82.2683 15.5871 82.3475 15.6908L84.4217 14.1046ZM81.4106 12.7931H79.0606V15.4043H81.4106V12.7931ZM77.7551 14.0987V23.4987H80.3662V14.0987H77.7551ZM79.0606 24.8043H80.9406V22.1932H79.0606V24.8043Z" fill="url(#paint0_linear_339:1532)"/>
<path d="M34.5541 16.7848C34.2164 15.0028 38.7859 24.5958 35.1903 29.8945C31.5947 35.1933 22.1567 34.2948 22.2816 26.108C22.3027 24.1111 24.3417 31.5133 29.2463 30.2103C35.7079 28.5611 35.1851 19.9013 34.5541 16.7848Z" fill="#BCA4FF"/>
<path d="M23.9009 5.64837C24.6644 4.24615 25.5313 3.06332 26.2587 2.18255C26.2231 2.72213 26.2476 3.23996 26.3275 3.74156C26.5181 4.93873 27.0165 5.99797 27.6859 7.00195C28.351 7.99933 29.2008 8.96471 30.1088 9.96445C30.2561 10.1266 30.405 10.2898 30.5554 10.4545C31.341 11.3153 32.1651 12.2183 32.9873 13.2304C36.9159 18.0664 41.1261 26.4189 37.4765 34.7988C35.6845 38.9136 31.2281 41.89 26.426 42.7923C21.6328 43.6929 16.6886 42.4968 13.8478 38.529C11.0039 34.5567 11.5743 29.6235 13.1231 25.3148C13.9233 23.0889 14.968 21.0783 15.878 19.5292C15.8435 19.7257 15.8112 19.9258 15.7823 20.1281C15.604 21.3722 15.5378 22.7679 15.8548 23.9695C16.1798 25.2016 16.9281 26.2792 18.3691 26.7065C19.9628 27.1984 21.8855 26.4024 23.0014 24.7511C24.1476 23.0551 24.4551 20.4904 23.0227 17.3314L23.0221 17.33C21.0334 12.9718 22.1851 8.79961 23.9009 5.64837Z" stroke="url(#paint1_linear_339:1532)" stroke-width="1.30556"/>
<defs>
<linearGradient id="paint0_linear_339:1532" x1="14.3611" y1="0.298706" x2="97.2767" y2="52.5427" gradientUnits="userSpaceOnUse">
<stop stop-color="#7433FF"/>
<stop offset="1" stop-color="#BCA4FF"/>
</linearGradient>
<linearGradient id="paint1_linear_339:1532" x1="0" y1="15.4847" x2="42.3471" y2="8.75053" gradientUnits="userSpaceOnUse">
<stop stop-color="#7433FF"/>
<stop offset="1" stop-color="#BCA4FF"/>
</linearGradient>
</defs>
</svg>
