<svg width="15" height="16" viewBox="0 0 15 16" fill="none" xmlns="http://www.w3.org/2000/svg">
<path d="M11.2032 5.46921C11.0937 4.89146 12.5752 8.00169 11.4094 9.71963C10.2437 11.4376 7.18371 11.1463 7.22418 8.49197C7.23103 7.84452 7.89211 10.2445 9.48229 9.82198C11.5773 9.28731 11.4077 6.47962 11.2032 5.46921Z" fill="#BCA4FF"/>
<path d="M7.73889 1.85315C7.99505 1.38268 8.28704 0.988314 8.52784 0.699599C8.51265 0.886822 8.51983 1.06578 8.54735 1.23867C8.60882 1.62468 8.76954 1.96653 8.98597 2.29112C9.20104 2.61368 9.47603 2.92609 9.77045 3.25025C9.81815 3.30277 9.86641 3.35565 9.91514 3.40904C10.1699 3.68814 10.4373 3.98117 10.7041 4.30961C11.9787 5.87858 13.3472 8.5914 12.1612 11.3145C11.5783 12.653 10.1296 13.6199 8.56994 13.9129C7.013 14.2054 5.40473 13.8173 4.48026 12.526C3.55481 11.2334 3.74121 9.62915 4.24381 8.231C4.51326 7.48142 4.86811 6.80712 5.17093 6.29733C5.15537 6.38122 5.14096 6.46743 5.12842 6.55495C5.07071 6.95781 5.04949 7.40846 5.15167 7.79581C5.2563 8.19248 5.49662 8.53794 5.95897 8.675C6.46978 8.83269 7.08824 8.57776 7.44784 8.04566C7.81671 7.49984 7.91692 6.67276 7.45379 5.65138L7.45359 5.65095C6.8067 4.23327 7.18169 2.87652 7.73889 1.85315Z" stroke="url(#paint0_linear_655_10397)" stroke-width="0.4"/>
<defs>
<linearGradient id="paint0_linear_655_10397" x1="0" y1="5.04785" x2="13.7297" y2="2.8645" gradientUnits="userSpaceOnUse">
<stop stop-color="#7433FF"/>
<stop offset="1" stop-color="#BCA4FF"/>
</linearGradient>
</defs>
</svg>
