<svg width="1920" height="621" viewBox="0 0 1920 621" fill="none" xmlns="http://www.w3.org/2000/svg">
<path d="M502.632 82.8963C502.747 82.8775 502.851 82.8184 502.927 82.7297C503.002 82.641 503.043 82.5283 503.043 82.4119C503.043 82.2955 503.002 82.1828 502.927 82.0941C502.851 82.0054 502.747 81.9463 502.632 81.9275C502.517 81.9463 502.412 82.0054 502.337 82.0941C502.261 82.1828 502.22 82.2955 502.22 82.4119C502.22 82.5283 502.261 82.641 502.337 82.7297C502.412 82.8184 502.517 82.8775 502.632 82.8963Z" fill="#F9F6EA"/>
<path d="M505.789 189.044C505.789 189.483 505.854 189.91 505.879 190.337C505.886 190.462 505.936 190.581 506.022 190.673C506.066 190.721 506.12 190.758 506.181 190.782C506.241 190.807 506.306 190.818 506.371 190.815C506.434 190.82 506.497 190.809 506.556 190.785C506.614 190.76 506.666 190.722 506.707 190.673C506.754 190.631 506.791 190.579 506.815 190.521C506.84 190.463 506.851 190.4 506.849 190.337C506.849 189.897 506.849 189.471 506.758 189.044C506.752 188.918 506.702 188.799 506.616 188.708C506.574 188.661 506.522 188.623 506.464 188.599C506.406 188.574 506.343 188.563 506.28 188.565C506.215 188.563 506.15 188.574 506.09 188.598C506.03 188.623 505.976 188.66 505.931 188.708C505.886 188.751 505.85 188.803 505.826 188.861C505.801 188.919 505.789 188.981 505.789 189.044Z" fill="#F9F6EA"/>
<path d="M536.659 190C536.774 189.981 536.879 189.922 536.954 189.833C537.03 189.744 537.071 189.632 537.071 189.515C537.071 189.399 537.03 189.286 536.954 189.198C536.879 189.109 536.774 189.05 536.659 189.031C536.544 189.05 536.44 189.109 536.364 189.198C536.289 189.286 536.248 189.399 536.248 189.515C536.248 189.632 536.289 189.744 536.364 189.833C536.44 189.922 536.544 189.981 536.659 190Z" fill="#F9F6EA"/>
<path d="M722.388 386.414C722.503 386.395 722.607 386.336 722.683 386.247C722.758 386.159 722.799 386.046 722.799 385.93C722.799 385.813 722.758 385.7 722.683 385.612C722.607 385.523 722.503 385.464 722.388 385.445C722.273 385.464 722.168 385.523 722.093 385.612C722.017 385.7 721.976 385.813 721.976 385.93C721.976 386.046 722.017 386.159 722.093 386.247C722.168 386.336 722.273 386.395 722.388 386.414Z" fill="#F9F6EA"/>
<path d="M798.97 415.042C799.085 415.023 799.189 414.964 799.264 414.875C799.34 414.787 799.381 414.674 799.381 414.558C799.381 414.441 799.34 414.329 799.264 414.24C799.189 414.151 799.085 414.092 798.97 414.073C798.855 414.092 798.75 414.151 798.675 414.24C798.599 414.329 798.558 414.441 798.558 414.558C798.558 414.674 798.599 414.787 798.675 414.875C798.75 414.964 798.855 415.023 798.97 415.042Z" fill="#F9F6EA"/>
<path d="M836.568 535.49C836.683 535.471 836.788 535.412 836.863 535.323C836.939 535.234 836.98 535.122 836.98 535.005C836.98 534.889 836.939 534.776 836.863 534.687C836.788 534.599 836.683 534.54 836.568 534.521C836.453 534.54 836.349 534.599 836.273 534.687C836.198 534.776 836.156 534.889 836.156 535.005C836.156 535.122 836.198 535.234 836.273 535.323C836.349 535.412 836.453 535.471 836.568 535.49Z" fill="#F9F6EA"/>
<path d="M651.874 28.3298C651.989 28.3109 652.094 28.2519 652.169 28.1632C652.245 28.0744 652.286 27.9618 652.286 27.8454C652.286 27.7289 652.245 27.6163 652.169 27.5275C652.094 27.4388 651.989 27.3798 651.874 27.3609C651.759 27.3798 651.655 27.4388 651.58 27.5275C651.504 27.6163 651.463 27.7289 651.463 27.8454C651.463 27.9618 651.504 28.0744 651.58 28.1632C651.655 28.2519 651.759 28.3109 651.874 28.3298Z" fill="#F9F6EA"/>
<path d="M1334.04 33.8004L1332.75 33.8779C1332.63 33.884 1332.51 33.9343 1332.41 34.02C1332.37 34.065 1332.33 34.1193 1332.31 34.1793C1332.28 34.2394 1332.27 34.3039 1332.27 34.3688C1332.27 34.4337 1332.28 34.4985 1332.31 34.5586C1332.33 34.6188 1332.37 34.673 1332.41 34.7175C1332.46 34.7609 1332.51 34.7948 1332.57 34.817C1332.63 34.8392 1332.69 34.8493 1332.75 34.8467L1334.04 34.7692C1334.17 34.7631 1334.29 34.7127 1334.38 34.6271C1334.47 34.5329 1334.52 34.4083 1334.52 34.2783C1334.52 34.2155 1334.51 34.1533 1334.49 34.0954C1334.46 34.0376 1334.43 33.9855 1334.38 33.9425C1334.34 33.8961 1334.29 33.8594 1334.23 33.8349C1334.17 33.8104 1334.11 33.7986 1334.04 33.8004Z" fill="#F9F6EA"/>
<path d="M746.841 131.153C746.956 131.134 747.061 131.075 747.136 130.986C747.212 130.898 747.253 130.785 747.253 130.669C747.253 130.552 747.212 130.44 747.136 130.351C747.061 130.262 746.956 130.203 746.841 130.184C746.726 130.203 746.622 130.262 746.546 130.351C746.471 130.44 746.43 130.552 746.43 130.669C746.43 130.785 746.471 130.898 746.546 130.986C746.622 131.075 746.726 131.134 746.841 131.153Z" fill="#F9F6EA"/>
<path d="M874.348 213.262C874.463 213.243 874.567 213.184 874.643 213.095C874.718 213.006 874.76 212.894 874.76 212.777C874.76 212.661 874.718 212.548 874.643 212.459C874.567 212.371 874.463 212.312 874.348 212.293C874.233 212.312 874.128 212.371 874.053 212.459C873.978 212.548 873.936 212.661 873.936 212.777C873.936 212.894 873.978 213.006 874.053 213.095C874.128 213.184 874.233 213.243 874.348 213.262Z" fill="#F9F6EA"/>
<path d="M972.549 296.676C972.664 296.657 972.769 296.598 972.844 296.51C972.92 296.421 972.961 296.308 972.961 296.192C972.961 296.075 972.92 295.963 972.844 295.874C972.769 295.785 972.664 295.726 972.549 295.707C972.434 295.726 972.33 295.785 972.254 295.874C972.179 295.963 972.137 296.075 972.137 296.192C972.137 296.308 972.179 296.421 972.254 296.51C972.33 296.598 972.434 296.657 972.549 296.676Z" fill="#F9F6EA"/>
<path d="M888.308 113.593C888.423 113.575 888.528 113.515 888.603 113.427C888.679 113.338 888.72 113.225 888.72 113.109C888.72 112.993 888.679 112.88 888.603 112.791C888.528 112.702 888.423 112.643 888.308 112.625C888.193 112.643 888.089 112.702 888.013 112.791C887.938 112.88 887.897 112.993 887.897 113.109C887.897 113.225 887.938 113.338 888.013 113.427C888.089 113.515 888.193 113.575 888.308 113.593Z" fill="#F9F6EA"/>
<path d="M1154.45 117.485C1154.56 117.467 1154.67 117.408 1154.74 117.319C1154.82 117.23 1154.86 117.118 1154.86 117.001C1154.86 116.885 1154.82 116.772 1154.74 116.683C1154.67 116.595 1154.56 116.536 1154.45 116.517C1154.33 116.536 1154.23 116.595 1154.15 116.683C1154.08 116.772 1154.04 116.885 1154.04 117.001C1154.04 117.118 1154.08 117.23 1154.15 117.319C1154.23 117.408 1154.33 117.467 1154.45 117.485Z" fill="#F9F6EA"/>
<path d="M1138.35 388.755L1137.06 388.846C1136.96 388.841 1136.86 388.867 1136.78 388.919C1136.7 388.971 1136.63 389.047 1136.6 389.137C1136.56 389.228 1136.55 389.327 1136.57 389.423C1136.59 389.519 1136.64 389.606 1136.71 389.672C1136.75 389.72 1136.81 389.757 1136.87 389.782C1136.93 389.806 1136.99 389.817 1137.06 389.815L1138.35 389.724C1138.48 389.721 1138.6 389.669 1138.69 389.581C1138.78 389.492 1138.83 389.372 1138.83 389.246C1138.84 389.181 1138.82 389.116 1138.8 389.056C1138.77 388.996 1138.74 388.942 1138.69 388.897C1138.6 388.812 1138.48 388.761 1138.35 388.755Z" fill="#F9F6EA"/>
<path d="M1235.18 490.272C1235.3 490.253 1235.4 490.194 1235.48 490.105C1235.55 490.016 1235.59 489.904 1235.59 489.787C1235.59 489.671 1235.55 489.558 1235.48 489.469C1235.4 489.381 1235.3 489.322 1235.18 489.303C1235.07 489.322 1234.96 489.381 1234.89 489.469C1234.81 489.558 1234.77 489.671 1234.77 489.787C1234.77 489.904 1234.81 490.016 1234.89 490.105C1234.96 490.194 1235.07 490.253 1235.18 490.272Z" fill="#F9F6EA"/>
<path d="M1302.95 436.508C1302.95 436.934 1302.95 437.374 1303.04 437.801C1303.04 437.898 1303.07 437.995 1303.12 438.078C1303.17 438.161 1303.25 438.226 1303.34 438.264C1303.43 438.302 1303.53 438.312 1303.62 438.291C1303.72 438.271 1303.8 438.221 1303.87 438.15C1303.92 438.105 1303.96 438.051 1303.98 437.991C1304.01 437.931 1304.02 437.866 1304.01 437.801C1304.01 437.374 1304.01 436.934 1303.92 436.508C1303.92 436.378 1303.87 436.253 1303.78 436.158C1303.69 436.068 1303.56 436.017 1303.43 436.016C1303.31 436.019 1303.19 436.07 1303.1 436.158C1303.05 436.203 1303.01 436.257 1302.99 436.318C1302.96 436.378 1302.95 436.443 1302.95 436.508Z" fill="#F9F6EA"/>
<path d="M1368.5 499.181C1368.61 499.162 1368.72 499.103 1368.79 499.014C1368.87 498.926 1368.91 498.813 1368.91 498.696C1368.91 498.58 1368.87 498.467 1368.79 498.379C1368.72 498.29 1368.61 498.231 1368.5 498.212C1368.38 498.231 1368.28 498.29 1368.2 498.379C1368.13 498.467 1368.09 498.58 1368.09 498.696C1368.09 498.813 1368.13 498.926 1368.2 499.014C1368.28 499.103 1368.38 499.162 1368.5 499.181Z" fill="#F9F6EA"/>
<path d="M1400.39 503.474C1400.51 503.455 1400.61 503.396 1400.69 503.307C1400.76 503.218 1400.8 503.106 1400.8 502.989C1400.8 502.873 1400.76 502.76 1400.69 502.672C1400.61 502.583 1400.51 502.524 1400.39 502.505C1400.28 502.524 1400.17 502.583 1400.1 502.672C1400.02 502.76 1399.98 502.873 1399.98 502.989C1399.98 503.106 1400.02 503.218 1400.1 503.307C1400.17 503.396 1400.28 503.455 1400.39 503.474Z" fill="#F9F6EA"/>
<path d="M1487.91 123.809V123.693L1488.67 123.603C1488.63 123.536 1488.6 123.461 1488.59 123.383L1488 123.978C1488.38 124.456 1489.07 123.771 1488.68 123.292C1488.55 123.137 1488.48 123.021 1488.28 122.982C1488.2 122.962 1488.11 122.963 1488.03 122.986C1487.95 123.008 1487.88 123.052 1487.82 123.112C1487.76 123.171 1487.71 123.246 1487.69 123.327C1487.67 123.409 1487.67 123.495 1487.69 123.577C1487.74 123.821 1487.85 124.048 1488.01 124.236C1488.06 124.287 1488.13 124.326 1488.2 124.349C1488.27 124.372 1488.34 124.379 1488.42 124.369C1488.49 124.359 1488.56 124.332 1488.62 124.292C1488.68 124.251 1488.73 124.196 1488.77 124.133C1488.81 124.032 1488.84 123.925 1488.84 123.816C1488.84 123.707 1488.81 123.6 1488.77 123.499C1488.66 122.891 1487.73 123.15 1487.84 123.758L1487.91 123.809Z" fill="#F9F6EA"/>
<path d="M1514.47 80.2327C1514.58 80.2139 1514.69 80.1549 1514.76 80.0661C1514.84 79.9774 1514.88 79.8648 1514.88 79.7483C1514.88 79.6319 1514.84 79.5193 1514.76 79.4305C1514.69 79.3418 1514.58 79.2827 1514.47 79.2639C1514.35 79.2827 1514.25 79.3418 1514.17 79.4305C1514.1 79.5193 1514.06 79.6319 1514.06 79.7483C1514.06 79.8648 1514.1 79.9774 1514.17 80.0661C1514.25 80.1549 1514.35 80.2139 1514.47 80.2327Z" fill="#F9F6EA"/>
<path d="M1545.97 25.6144C1546.09 25.5956 1546.19 25.5365 1546.27 25.4478C1546.34 25.3591 1546.38 25.2464 1546.38 25.13C1546.38 25.0136 1546.34 24.9009 1546.27 24.8122C1546.19 24.7235 1546.09 24.6644 1545.97 24.6456C1545.86 24.6644 1545.75 24.7235 1545.68 24.8122C1545.6 24.9009 1545.56 25.0136 1545.56 25.13C1545.56 25.2464 1545.6 25.3591 1545.68 25.4478C1545.75 25.5365 1545.86 25.5956 1545.97 25.6144Z" fill="#F9F6EA"/>
<path d="M1610.17 200.499C1610.29 200.48 1610.39 200.421 1610.47 200.333C1610.54 200.244 1610.58 200.131 1610.58 200.015C1610.58 199.898 1610.54 199.786 1610.47 199.697C1610.39 199.608 1610.29 199.549 1610.17 199.53C1610.06 199.549 1609.95 199.608 1609.88 199.697C1609.8 199.786 1609.76 199.898 1609.76 200.015C1609.76 200.131 1609.8 200.244 1609.88 200.333C1609.95 200.421 1610.06 200.48 1610.17 200.499Z" fill="#F9F6EA"/>
<path d="M1612.44 303.801C1612.55 303.782 1612.66 303.723 1612.73 303.635C1612.81 303.546 1612.85 303.433 1612.85 303.317C1612.85 303.2 1612.81 303.088 1612.73 302.999C1612.66 302.91 1612.55 302.851 1612.44 302.832C1612.32 302.851 1612.22 302.91 1612.14 302.999C1612.07 303.088 1612.03 303.2 1612.03 303.317C1612.03 303.433 1612.07 303.546 1612.14 303.635C1612.22 303.723 1612.32 303.782 1612.44 303.801Z" fill="#F9F6EA"/>
<path d="M1635.44 361.109C1635.56 361.09 1635.66 361.031 1635.74 360.942C1635.81 360.854 1635.85 360.741 1635.85 360.625C1635.85 360.508 1635.81 360.396 1635.74 360.307C1635.66 360.218 1635.56 360.159 1635.44 360.14C1635.33 360.159 1635.22 360.218 1635.15 360.307C1635.07 360.396 1635.03 360.508 1635.03 360.625C1635.03 360.741 1635.07 360.854 1635.15 360.942C1635.22 361.031 1635.33 361.09 1635.44 361.109Z" fill="#F9F6EA"/>
<path d="M1607.2 450.343C1607.2 450.77 1607.2 451.21 1607.29 451.636C1607.29 451.762 1607.34 451.881 1607.43 451.973C1607.47 452.02 1607.53 452.057 1607.59 452.082C1607.65 452.106 1607.71 452.118 1607.78 452.115C1607.84 452.117 1607.9 452.105 1607.96 452.08C1608.02 452.056 1608.07 452.019 1608.11 451.973C1608.16 451.929 1608.2 451.877 1608.22 451.819C1608.24 451.761 1608.26 451.699 1608.26 451.636C1608.26 451.197 1608.26 450.757 1608.17 450.343C1608.16 450.215 1608.11 450.092 1608.02 449.994C1607.98 449.948 1607.93 449.912 1607.87 449.887C1607.81 449.862 1607.75 449.85 1607.68 449.85C1607.62 449.85 1607.56 449.862 1607.5 449.887C1607.44 449.912 1607.38 449.948 1607.34 449.994C1607.29 450.039 1607.25 450.093 1607.23 450.153C1607.21 450.214 1607.19 450.278 1607.2 450.343Z" fill="#F9F6EA"/>
<path d="M1364.29 82.9999C1364.41 82.981 1364.51 82.922 1364.59 82.8333C1364.66 82.7445 1364.71 82.6319 1364.71 82.5155C1364.71 82.399 1364.66 82.2864 1364.59 82.1976C1364.51 82.1089 1364.41 82.0499 1364.29 82.031C1364.18 82.0499 1364.07 82.1089 1364 82.1976C1363.92 82.2864 1363.88 82.399 1363.88 82.5155C1363.88 82.6319 1363.92 82.7445 1364 82.8333C1364.07 82.922 1364.18 82.981 1364.29 82.9999Z" fill="#F9F6EA"/>
<path d="M1312.4 187.854L1311.11 187.945C1310.98 187.953 1310.85 188.003 1310.76 188.087C1310.67 188.178 1310.62 188.297 1310.61 188.423C1310.62 188.552 1310.67 188.675 1310.76 188.771C1310.85 188.862 1310.97 188.913 1311.11 188.914L1312.4 188.823C1312.52 188.817 1312.64 188.767 1312.74 188.681C1312.78 188.639 1312.82 188.587 1312.84 188.529C1312.87 188.471 1312.88 188.408 1312.88 188.345C1312.88 188.28 1312.87 188.215 1312.84 188.155C1312.82 188.095 1312.78 188.041 1312.74 187.996C1312.69 187.951 1312.64 187.915 1312.58 187.891C1312.52 187.867 1312.46 187.854 1312.4 187.854Z" fill="#F9F6EA"/>
<path d="M1165.36 221.952L1164.17 223.374C1164.07 223.468 1164.02 223.593 1164.02 223.723C1164.02 223.786 1164.04 223.848 1164.06 223.906C1164.08 223.964 1164.12 224.016 1164.17 224.059C1164.21 224.107 1164.26 224.144 1164.32 224.169C1164.38 224.193 1164.45 224.204 1164.51 224.202C1164.58 224.204 1164.64 224.193 1164.7 224.168C1164.76 224.144 1164.81 224.107 1164.85 224.059L1166.02 222.676C1166.11 222.582 1166.16 222.457 1166.16 222.327C1166.16 222.264 1166.15 222.202 1166.12 222.144C1166.1 222.086 1166.06 222.034 1166.02 221.991C1165.97 221.943 1165.92 221.906 1165.86 221.882C1165.81 221.857 1165.74 221.846 1165.68 221.848C1165.61 221.844 1165.55 221.854 1165.49 221.879C1165.43 221.903 1165.37 221.942 1165.33 221.991L1165.36 221.952Z" fill="#F9F6EA"/>
<path d="M1070.23 516.34C1070.35 516.321 1070.45 516.262 1070.53 516.173C1070.6 516.084 1070.64 515.972 1070.64 515.855C1070.64 515.739 1070.6 515.626 1070.53 515.537C1070.45 515.449 1070.35 515.39 1070.23 515.371C1070.12 515.39 1070.01 515.449 1069.94 515.537C1069.86 515.626 1069.82 515.739 1069.82 515.855C1069.82 515.972 1069.86 516.084 1069.94 516.173C1070.01 516.262 1070.12 516.321 1070.23 516.34Z" fill="#F9F6EA"/>
<path d="M993.083 555.003L991.918 556.399C991.832 556.491 991.782 556.61 991.776 556.735C991.778 556.866 991.828 556.99 991.918 557.085C992.015 557.17 992.138 557.22 992.267 557.227C992.393 557.221 992.512 557.17 992.604 557.085L993.768 555.688C993.857 555.598 993.908 555.478 993.911 555.352C993.912 555.287 993.9 555.223 993.875 555.163C993.851 555.103 993.815 555.048 993.768 555.003C993.725 554.958 993.673 554.922 993.615 554.897C993.557 554.873 993.495 554.86 993.432 554.86C993.367 554.858 993.302 554.869 993.242 554.894C993.182 554.918 993.127 554.955 993.083 555.003Z" fill="#F9F6EA"/>
<path d="M1440.69 6.27024C1440.81 6.25141 1440.91 6.19236 1440.99 6.10362C1441.06 6.01489 1441.11 5.90225 1441.11 5.78582C1441.11 5.66939 1441.06 5.55675 1440.99 5.46802C1440.91 5.37928 1440.81 5.32023 1440.69 5.30141C1440.58 5.32023 1440.48 5.37928 1440.4 5.46802C1440.32 5.55675 1440.28 5.66939 1440.28 5.78582C1440.28 5.90225 1440.32 6.01489 1440.4 6.10362C1440.48 6.19236 1440.58 6.25141 1440.69 6.27024Z" fill="#F9F6EA"/>
<path d="M628.431 237.688C628.688 237.688 628.935 237.586 629.117 237.404C629.299 237.222 629.401 236.976 629.401 236.719C629.401 236.461 629.299 236.215 629.117 236.033C628.935 235.851 628.688 235.749 628.431 235.749C628.173 235.749 627.926 235.851 627.745 236.033C627.563 236.215 627.46 236.461 627.46 236.719C627.46 236.976 627.563 237.222 627.745 237.404C627.926 237.586 628.173 237.688 628.431 237.688Z" fill="#F9F6EA"/>
<path d="M704.081 75.9667C704.081 76.3934 704.145 76.8331 704.184 77.2598C704.171 77.3856 704.198 77.5125 704.262 77.6218C704.297 77.7477 704.369 77.8602 704.469 77.9451C704.551 78.0389 704.659 78.1063 704.779 78.139C704.894 78.202 705.024 78.2332 705.154 78.2296C705.41 78.2215 705.654 78.1204 705.84 77.9451C706.029 77.766 706.141 77.52 706.151 77.2598C706.151 76.8201 706.086 76.3805 706.047 75.9667C706.062 75.8367 706.034 75.7054 705.97 75.5918C705.93 75.4715 705.859 75.3642 705.763 75.2814C705.685 75.1803 705.576 75.1076 705.452 75.0745C705.336 75.0155 705.207 74.9887 705.077 74.997C704.82 74.9999 704.575 75.1018 704.391 75.2814C704.214 75.4661 704.112 75.7107 704.107 75.9667H704.081Z" fill="#F9F6EA"/>
<path d="M791.544 120.616L792.837 120.538C792.968 120.542 793.098 120.51 793.213 120.448C793.333 120.415 793.441 120.347 793.523 120.254C793.623 120.169 793.695 120.056 793.73 119.93C793.795 119.821 793.822 119.694 793.808 119.568C793.809 119.441 793.785 119.314 793.736 119.196C793.687 119.079 793.614 118.972 793.523 118.883C793.432 118.797 793.324 118.732 793.206 118.689C793.088 118.647 792.962 118.629 792.837 118.637L791.544 118.715C791.413 118.712 791.284 118.744 791.168 118.805C791.051 118.845 790.945 118.911 790.858 118.999C790.767 119.089 790.7 119.2 790.664 119.323C790.602 119.433 790.571 119.558 790.573 119.685C790.573 119.946 790.675 120.196 790.858 120.383C790.948 120.471 791.056 120.541 791.173 120.587C791.291 120.634 791.417 120.657 791.544 120.654V120.616Z" fill="#F9F6EA"/>
<path d="M1039.84 212.513C1040.1 212.513 1040.35 212.41 1040.53 212.229C1040.71 212.047 1040.81 211.8 1040.81 211.543C1040.81 211.286 1040.71 211.039 1040.53 210.857C1040.35 210.675 1040.1 210.573 1039.84 210.573C1039.58 210.573 1039.34 210.675 1039.16 210.857C1038.97 211.039 1038.87 211.286 1038.87 211.543C1038.87 211.8 1038.97 212.047 1039.16 212.229C1039.34 212.41 1039.58 212.513 1039.84 212.513Z" fill="#F9F6EA"/>
<path d="M1180.99 508.362L1179.69 508.453C1179.56 508.45 1179.43 508.482 1179.32 508.543C1179.2 508.583 1179.09 508.649 1179.01 508.737C1178.91 508.823 1178.84 508.93 1178.8 509.048C1178.75 509.166 1178.72 509.294 1178.72 509.423C1178.72 509.55 1178.74 509.677 1178.79 509.794C1178.84 509.912 1178.91 510.019 1179.01 510.108C1179.09 510.2 1179.2 510.274 1179.32 510.323C1179.44 510.371 1179.56 510.395 1179.69 510.392L1180.99 510.302C1181.12 510.315 1181.25 510.288 1181.36 510.224C1181.48 510.185 1181.59 510.113 1181.67 510.017C1181.77 509.936 1181.84 509.828 1181.88 509.707C1181.94 509.591 1181.96 509.462 1181.96 509.332C1181.95 509.076 1181.85 508.83 1181.67 508.647C1181.49 508.465 1181.24 508.363 1180.99 508.362Z" fill="#F9F6EA"/>
<path d="M1268.59 534.236C1268.85 534.236 1269.09 534.134 1269.28 533.952C1269.46 533.77 1269.56 533.524 1269.56 533.266C1269.56 533.009 1269.46 532.763 1269.28 532.581C1269.09 532.399 1268.85 532.297 1268.59 532.297C1268.33 532.297 1268.09 532.399 1267.9 532.581C1267.72 532.763 1267.62 533.009 1267.62 533.266C1267.62 533.524 1267.72 533.77 1267.9 533.952C1268.09 534.134 1268.33 534.236 1268.59 534.236Z" fill="#F9F6EA"/>
<path d="M1261.1 89.479L1262.39 89.3885C1262.52 89.3921 1262.65 89.3609 1262.77 89.2979C1262.89 89.2619 1263 89.1951 1263.09 89.104C1263.18 89.0172 1263.25 88.9109 1263.29 88.7937C1263.35 88.6797 1263.38 88.5487 1263.36 88.4187C1263.37 88.292 1263.34 88.1658 1263.3 88.048C1263.25 87.9302 1263.18 87.8231 1263.09 87.7334C1263 87.6417 1262.89 87.5693 1262.77 87.5205C1262.65 87.4716 1262.52 87.4473 1262.39 87.4489L1261.1 87.5394C1260.97 87.526 1260.84 87.5531 1260.72 87.617C1260.6 87.6565 1260.5 87.7281 1260.41 87.8239C1260.32 87.906 1260.25 88.0139 1260.22 88.1342C1260.16 88.249 1260.12 88.3784 1260.13 88.5092C1260.14 88.7647 1260.24 89.0084 1260.41 89.1945C1260.6 89.3741 1260.84 89.476 1261.1 89.479Z" fill="#F9F6EA"/>
<path d="M1344.24 121.572C1344.5 121.572 1344.74 121.47 1344.93 121.288C1345.11 121.107 1345.21 120.86 1345.21 120.603C1345.21 120.345 1345.11 120.099 1344.93 119.917C1344.74 119.735 1344.5 119.633 1344.24 119.633C1343.98 119.633 1343.74 119.735 1343.55 119.917C1343.37 120.099 1343.27 120.345 1343.27 120.603C1343.27 120.86 1343.37 121.107 1343.55 121.288C1343.74 121.47 1343.98 121.572 1344.24 121.572Z" fill="#F9F6EA"/>
<path d="M1498.65 212.176L1497.35 212.267C1497.23 212.258 1497.1 212.285 1496.99 212.345C1496.87 212.385 1496.75 212.456 1496.67 212.551C1496.58 212.638 1496.51 212.745 1496.47 212.862C1496.41 212.977 1496.38 213.106 1496.38 213.237C1496.39 213.492 1496.49 213.736 1496.67 213.922C1496.85 214.102 1497.09 214.204 1497.35 214.207L1498.65 214.116C1498.77 214.116 1498.9 214.09 1499.02 214.038C1499.14 213.994 1499.24 213.924 1499.33 213.832C1499.42 213.745 1499.49 213.638 1499.52 213.521C1499.59 213.406 1499.62 213.277 1499.62 213.146C1499.61 212.89 1499.51 212.646 1499.33 212.461C1499.15 212.281 1498.9 212.179 1498.65 212.176Z" fill="#F9F6EA"/>
<path d="M1536 259.929C1536.26 259.929 1536.5 259.826 1536.68 259.645C1536.87 259.463 1536.97 259.216 1536.97 258.959C1536.97 258.702 1536.87 258.455 1536.68 258.273C1536.5 258.091 1536.26 257.989 1536 257.989C1535.74 257.989 1535.49 258.091 1535.31 258.273C1535.13 258.455 1535.03 258.702 1535.03 258.959C1535.03 259.216 1535.13 259.463 1535.31 259.645C1535.49 259.826 1535.74 259.929 1536 259.929Z" fill="#F9F6EA"/>
<path d="M1415.59 373.213C1415.59 373.64 1415.66 374.079 1415.69 374.506C1415.68 374.637 1415.71 374.766 1415.78 374.881C1415.82 374.998 1415.88 375.104 1415.97 375.191C1416.06 375.282 1416.17 375.349 1416.29 375.385C1416.4 375.447 1416.53 375.478 1416.66 375.476C1416.92 375.47 1417.16 375.368 1417.35 375.191C1417.53 375.007 1417.63 374.761 1417.63 374.506C1417.63 374.066 1417.63 373.627 1417.54 373.213C1417.55 373.083 1417.52 372.952 1417.46 372.838C1417.42 372.718 1417.35 372.61 1417.25 372.528C1417.17 372.43 1417.06 372.358 1416.94 372.321C1416.82 372.262 1416.69 372.235 1416.56 372.243C1416.31 372.246 1416.06 372.348 1415.88 372.528C1415.7 372.709 1415.59 372.956 1415.59 373.213Z" fill="#F9F6EA"/>
<path d="M1407.16 241.257C1407.42 241.257 1407.66 241.155 1407.85 240.973C1408.03 240.791 1408.13 240.544 1408.13 240.287C1408.13 240.03 1408.03 239.783 1407.85 239.602C1407.66 239.42 1407.42 239.317 1407.16 239.317C1406.9 239.317 1406.65 239.42 1406.47 239.602C1406.29 239.783 1406.19 240.03 1406.19 240.287C1406.19 240.544 1406.29 240.791 1406.47 240.973C1406.65 241.155 1406.9 241.257 1407.16 241.257Z" fill="#F9F6EA"/>
<path d="M1583.56 521.125C1583.82 521.125 1584.06 521.023 1584.25 520.841C1584.43 520.659 1584.53 520.412 1584.53 520.155C1584.53 519.898 1584.43 519.651 1584.25 519.469C1584.06 519.287 1583.82 519.185 1583.56 519.185C1583.3 519.185 1583.05 519.287 1582.87 519.469C1582.69 519.651 1582.59 519.898 1582.59 520.155C1582.59 520.412 1582.69 520.659 1582.87 520.841C1583.05 521.023 1583.3 521.125 1583.56 521.125Z" fill="#F9F6EA"/>
<path d="M980.286 163.894C980.544 163.894 980.791 163.792 980.973 163.61C981.155 163.428 981.257 163.182 981.257 162.924C981.257 162.667 981.155 162.421 980.973 162.239C980.791 162.057 980.544 161.955 980.286 161.955C980.029 161.955 979.782 162.057 979.6 162.239C979.418 162.421 979.316 162.667 979.316 162.924C979.316 163.182 979.418 163.428 979.6 163.61C979.782 163.792 980.029 163.894 980.286 163.894Z" fill="#F9F6EA"/>
<path d="M740.734 512.473C740.849 512.454 740.954 512.395 741.029 512.307C741.105 512.218 741.146 512.105 741.146 511.989C741.146 511.872 741.105 511.76 741.029 511.671C740.954 511.582 740.849 511.523 740.734 511.504C740.619 511.523 740.515 511.582 740.439 511.671C740.364 511.76 740.322 511.872 740.322 511.989C740.322 512.105 740.364 512.218 740.439 512.307C740.515 512.395 740.619 512.454 740.734 512.473Z" fill="#F9F6EA"/>
<path d="M838.884 595.901C838.999 595.882 839.104 595.823 839.179 595.734C839.254 595.646 839.296 595.533 839.296 595.417C839.296 595.3 839.254 595.187 839.179 595.099C839.104 595.01 838.999 594.951 838.884 594.932C838.769 594.951 838.665 595.01 838.589 595.099C838.514 595.187 838.472 595.3 838.472 595.417C838.472 595.533 838.514 595.646 838.589 595.734C838.665 595.823 838.769 595.882 838.884 595.901Z" fill="#F9F6EA"/>
<path d="M906.176 511.724C906.434 511.724 906.681 511.622 906.863 511.44C907.045 511.258 907.147 511.012 907.147 510.755C907.147 510.497 907.045 510.251 906.863 510.069C906.681 509.887 906.434 509.785 906.176 509.785C905.919 509.785 905.672 509.887 905.49 510.069C905.308 510.251 905.206 510.497 905.206 510.755C905.206 511.012 905.308 511.258 905.49 511.44C905.672 511.622 905.919 511.724 906.176 511.724Z" fill="#F9F6EA"/>
<path d="M846.622 463.106C846.879 463.106 847.126 463.004 847.308 462.822C847.49 462.64 847.592 462.393 847.592 462.136C847.592 461.879 847.49 461.632 847.308 461.45C847.126 461.268 846.879 461.166 846.622 461.166C846.364 461.166 846.117 461.268 845.935 461.45C845.753 461.632 845.651 461.879 845.651 462.136C845.651 462.393 845.753 462.64 845.935 462.822C846.117 463.004 846.364 463.106 846.622 463.106Z" fill="#F9F6EA"/>
<path d="M564.451 30.0505L565.745 29.9599C565.874 29.9603 566.002 29.9339 566.12 29.8824C566.238 29.8383 566.344 29.7675 566.431 29.6755C566.519 29.5887 566.585 29.4824 566.625 29.3651C566.686 29.25 566.718 29.1208 566.715 28.9902C566.707 28.7347 566.606 28.4909 566.431 28.3048C566.247 28.1253 566.002 28.0233 565.745 28.0204L564.451 28.1109C564.322 28.1089 564.194 28.1354 564.076 28.1885C563.952 28.2293 563.841 28.3004 563.752 28.3953C563.664 28.4822 563.598 28.5885 563.558 28.7057C563.494 28.8197 563.467 28.9507 563.481 29.0807C563.478 29.2072 563.501 29.3329 563.548 29.4505C563.594 29.5682 563.664 29.6754 563.752 29.766C563.94 29.9464 564.19 30.0481 564.451 30.0505Z" fill="#F9F6EA"/>
<path d="M-67.7518 76.0432C-67.6369 76.0244 -67.5323 75.9654 -67.4569 75.8766C-67.3815 75.7879 -67.3401 75.6753 -67.3401 75.5588C-67.3401 75.4424 -67.3815 75.3298 -67.4569 75.241C-67.5323 75.1523 -67.6369 75.0932 -67.7518 75.0744C-67.8668 75.0932 -67.9713 75.1523 -68.0467 75.241C-68.1222 75.3298 -68.1636 75.4424 -68.1636 75.5588C-68.1636 75.6753 -68.1222 75.7879 -68.0467 75.8766C-67.9713 75.9654 -67.8668 76.0244 -67.7518 76.0432Z" fill="#F9F6EA"/>
<path d="M-15.5718 138.937C-15.4568 138.918 -15.3523 138.859 -15.2769 138.771C-15.2015 138.682 -15.16 138.569 -15.16 138.453C-15.16 138.336 -15.2015 138.224 -15.2769 138.135C-15.3523 138.046 -15.4568 137.987 -15.5718 137.968C-15.6867 137.987 -15.7913 138.046 -15.8667 138.135C-15.9421 138.224 -15.9835 138.336 -15.9835 138.453C-15.9835 138.569 -15.9421 138.682 -15.8667 138.771C-15.7913 138.859 -15.6867 138.918 -15.5718 138.937Z" fill="#F9F6EA"/>
<path d="M-42.8974 262.165C-42.7824 262.146 -42.6779 262.087 -42.6025 261.998C-42.527 261.909 -42.4856 261.797 -42.4856 261.68C-42.4856 261.564 -42.527 261.451 -42.6025 261.363C-42.6779 261.274 -42.7824 261.215 -42.8974 261.196C-43.0123 261.215 -43.1168 261.274 -43.1923 261.363C-43.2677 261.451 -43.3091 261.564 -43.3091 261.68C-43.3091 261.797 -43.2677 261.909 -43.1923 261.998C-43.1168 262.087 -43.0123 262.146 -42.8974 262.165Z" fill="#F9F6EA"/>
<path d="M638.121 74.0659L636.983 73.5228C636.924 73.4975 636.86 73.4845 636.795 73.4845C636.731 73.4845 636.667 73.4975 636.608 73.5228C636.548 73.5373 636.491 73.5644 636.442 73.6023C636.393 73.6402 636.352 73.688 636.323 73.7426C636.298 73.8019 636.285 73.8657 636.285 73.9301C636.285 73.9945 636.298 74.0583 636.323 74.1176C636.338 74.1778 636.365 74.2343 636.403 74.2833C636.441 74.3323 636.489 74.3728 636.543 74.4021L637.682 74.9581C637.803 75.0037 637.936 75.0037 638.057 74.9581C638.177 74.9246 638.279 74.8457 638.341 74.7383C638.367 74.6792 638.381 74.6153 638.381 74.5508C638.381 74.4862 638.367 74.4224 638.341 74.3633C638.307 74.2441 638.228 74.1424 638.121 74.0788V74.0659Z" fill="#F9F6EA"/>
<path d="M150.284 1.36972C150.399 1.3509 150.503 1.29185 150.579 1.20311C150.654 1.11438 150.696 1.00174 150.696 0.88531C150.696 0.76888 150.654 0.656243 150.579 0.567509C150.503 0.478774 150.399 0.41972 150.284 0.400895C150.169 0.41972 150.064 0.478774 149.989 0.567509C149.914 0.656243 149.872 0.76888 149.872 0.88531C149.872 1.00174 149.914 1.11438 149.989 1.20311C150.064 1.29185 150.169 1.3509 150.284 1.36972Z" fill="#F9F6EA"/>
<path d="M193.925 122.516C194.04 122.497 194.144 122.438 194.22 122.349C194.295 122.26 194.336 122.148 194.336 122.031C194.336 121.915 194.295 121.802 194.22 121.713C194.144 121.625 194.04 121.566 193.925 121.547C193.81 121.566 193.705 121.625 193.63 121.713C193.554 121.802 193.513 121.915 193.513 122.031C193.513 122.148 193.554 122.26 193.63 122.349C193.705 122.438 193.81 122.497 193.925 122.516Z" fill="#F9F6EA"/>
<path d="M822.983 1.82226C823.098 1.80344 823.203 1.74439 823.278 1.65565C823.353 1.56692 823.395 1.45428 823.395 1.33785C823.395 1.22142 823.353 1.10878 823.278 1.02005C823.203 0.931314 823.098 0.872262 822.983 0.853437C822.868 0.872262 822.764 0.931314 822.688 1.02005C822.613 1.10878 822.571 1.22142 822.571 1.33785C822.571 1.45428 822.613 1.56692 822.688 1.65565C822.764 1.74439 822.868 1.80344 822.983 1.82226Z" fill="#F9F6EA"/>
<path d="M440.916 57.4752C441.031 57.4563 441.136 57.3973 441.211 57.3086C441.286 57.2198 441.328 57.1072 441.328 56.9907C441.328 56.8743 441.286 56.7617 441.211 56.6729C441.136 56.5842 441.031 56.5252 440.916 56.5063C440.801 56.5252 440.697 56.5842 440.621 56.6729C440.546 56.7617 440.504 56.8743 440.504 56.9907C440.504 57.1072 440.546 57.2198 440.621 57.3086C440.697 57.3973 440.801 57.4563 440.916 57.4752Z" fill="#F9F6EA"/>
<path d="M291.712 284.755L290.574 284.212C290.515 284.187 290.451 284.174 290.386 284.174C290.322 284.174 290.258 284.187 290.199 284.212C290.138 284.227 290.082 284.254 290.033 284.292C289.984 284.33 289.943 284.378 289.914 284.432C289.889 284.491 289.876 284.555 289.876 284.62C289.876 284.684 289.889 284.748 289.914 284.807C289.947 284.931 290.026 285.037 290.134 285.105L291.273 285.648C291.394 285.687 291.526 285.687 291.648 285.648C291.769 285.609 291.87 285.525 291.932 285.415C291.957 285.358 291.97 285.296 291.97 285.234C291.97 285.172 291.957 285.11 291.932 285.053C291.898 284.93 291.82 284.824 291.712 284.755Z" fill="#F9F6EA"/>
<path d="M325.442 421.016C325.557 420.997 325.662 420.938 325.737 420.849C325.812 420.761 325.854 420.648 325.854 420.532C325.854 420.415 325.812 420.303 325.737 420.214C325.662 420.125 325.557 420.066 325.442 420.047C325.327 420.066 325.223 420.125 325.147 420.214C325.072 420.303 325.03 420.415 325.03 420.532C325.03 420.648 325.072 420.761 325.147 420.849C325.223 420.938 325.327 420.997 325.442 421.016Z" fill="#F9F6EA"/>
<path d="M410.744 407.983C410.563 408.371 410.369 408.772 410.175 409.16C410.129 409.281 410.129 409.414 410.175 409.535C410.19 409.595 410.217 409.651 410.255 409.7C410.293 409.749 410.34 409.79 410.395 409.819C410.454 409.844 410.518 409.857 410.583 409.857C410.647 409.857 410.711 409.844 410.77 409.819C410.831 409.805 410.887 409.778 410.936 409.74C410.985 409.702 411.026 409.654 411.055 409.599C411.249 409.198 411.443 408.811 411.624 408.423C411.649 408.363 411.662 408.3 411.662 408.235C411.662 408.171 411.649 408.107 411.624 408.048C411.61 407.987 411.583 407.931 411.545 407.882C411.507 407.833 411.459 407.792 411.404 407.763C411.284 407.714 411.149 407.714 411.029 407.763C410.906 407.796 410.799 407.875 410.731 407.983H410.744Z" fill="#F9F6EA"/>
<path d="M436.659 495.004C436.774 494.985 436.879 494.926 436.954 494.838C437.03 494.749 437.071 494.636 437.071 494.52C437.071 494.403 437.03 494.291 436.954 494.202C436.879 494.113 436.774 494.054 436.659 494.035C436.545 494.054 436.44 494.113 436.365 494.202C436.289 494.291 436.248 494.403 436.248 494.52C436.248 494.636 436.289 494.749 436.365 494.838C436.44 494.926 436.545 494.985 436.659 495.004Z" fill="#F9F6EA"/>
<path d="M462.199 514.581C462.314 514.562 462.419 514.503 462.494 514.414C462.57 514.326 462.611 514.213 462.611 514.097C462.611 513.98 462.57 513.868 462.494 513.779C462.419 513.69 462.314 513.631 462.199 513.612C462.084 513.631 461.98 513.69 461.904 513.779C461.829 513.868 461.788 513.98 461.788 514.097C461.788 514.213 461.829 514.326 461.904 514.414C461.98 514.503 462.084 514.562 462.199 514.581Z" fill="#F9F6EA"/>
<path d="M726.852 228.547H726.956L727.666 228.831C727.654 228.758 727.654 228.684 727.666 228.611L726.865 228.831C726.968 229.452 727.899 229.193 727.796 228.572C727.792 228.402 727.722 228.24 727.602 228.12C727.542 228.061 727.467 228.018 727.386 227.996C727.304 227.974 727.218 227.973 727.136 227.994C727.054 228.015 726.979 228.056 726.918 228.114C726.857 228.173 726.812 228.246 726.787 228.327C726.73 228.569 726.73 228.821 726.787 229.064C726.807 229.135 726.843 229.201 726.892 229.257C726.941 229.312 727.003 229.356 727.071 229.385C727.139 229.413 727.213 229.426 727.287 229.422C727.361 229.418 727.433 229.397 727.498 229.361C727.673 229.233 727.793 229.044 727.834 228.831C728.041 228.249 727.111 227.991 726.904 228.572L726.852 228.547Z" fill="#F9F6EA"/>
<path d="M771.773 204.094C771.888 204.075 771.993 204.016 772.068 203.927C772.144 203.839 772.185 203.726 772.185 203.61C772.185 203.493 772.144 203.381 772.068 203.292C771.993 203.203 771.888 203.144 771.773 203.125C771.658 203.144 771.554 203.203 771.478 203.292C771.403 203.381 771.362 203.493 771.362 203.61C771.362 203.726 771.403 203.839 771.478 203.927C771.554 204.016 771.658 204.075 771.773 204.094Z" fill="#F9F6EA"/>
<path d="M826.295 172.376C826.41 172.357 826.515 172.298 826.59 172.209C826.666 172.12 826.707 172.008 826.707 171.891C826.707 171.775 826.666 171.662 826.59 171.573C826.515 171.485 826.41 171.426 826.295 171.407C826.18 171.426 826.076 171.485 826 171.573C825.925 171.662 825.883 171.775 825.883 171.891C825.883 172.008 825.925 172.12 826 172.209C826.076 172.298 826.18 172.357 826.295 172.376Z" fill="#F9F6EA"/>
<path d="M794.959 356.001C795.074 355.983 795.178 355.924 795.254 355.835C795.329 355.746 795.37 355.633 795.37 355.517C795.37 355.401 795.329 355.288 795.254 355.199C795.178 355.11 795.074 355.051 794.959 355.033C794.844 355.051 794.739 355.11 794.664 355.199C794.588 355.288 794.547 355.401 794.547 355.517C794.547 355.633 794.588 355.746 794.664 355.835C794.739 355.924 794.844 355.983 794.959 356.001Z" fill="#F9F6EA"/>
<path d="M745.508 446.748C745.623 446.729 745.728 446.67 745.803 446.581C745.879 446.492 745.92 446.38 745.92 446.263C745.92 446.147 745.879 446.034 745.803 445.945C745.728 445.857 745.623 445.798 745.508 445.779C745.393 445.798 745.289 445.857 745.213 445.945C745.138 446.034 745.097 446.147 745.097 446.263C745.097 446.38 745.138 446.492 745.213 446.581C745.289 446.67 745.393 446.729 745.508 446.748Z" fill="#F9F6EA"/>
<path d="M736.956 507.909C737.071 507.89 737.176 507.831 737.251 507.742C737.327 507.653 737.368 507.541 737.368 507.424C737.368 507.308 737.327 507.195 737.251 507.107C737.176 507.018 737.071 506.959 736.956 506.94C736.841 506.959 736.737 507.018 736.662 507.107C736.586 507.195 736.545 507.308 736.545 507.424C736.545 507.541 736.586 507.653 736.662 507.742C736.737 507.831 736.841 507.89 736.956 507.909Z" fill="#F9F6EA"/>
<path d="M667.815 571.205C667.621 571.593 667.44 571.993 667.245 572.381C667.22 572.441 667.207 572.504 667.207 572.569C667.207 572.633 667.22 572.697 667.245 572.756C667.28 572.876 667.359 572.977 667.465 573.041C667.586 573.09 667.72 573.09 667.841 573.041C667.964 573.008 668.07 572.929 668.138 572.821C668.319 572.433 668.513 572.032 668.707 571.644C668.753 571.523 668.753 571.39 668.707 571.269C668.693 571.209 668.666 571.153 668.628 571.104C668.59 571.054 668.542 571.014 668.488 570.985C668.428 570.96 668.364 570.947 668.3 570.947C668.235 570.947 668.172 570.96 668.112 570.985C668.052 570.999 667.996 571.026 667.946 571.064C667.897 571.102 667.857 571.15 667.828 571.205H667.815Z" fill="#F9F6EA"/>
<path d="M640.165 131.851C640.28 131.832 640.384 131.773 640.46 131.685C640.535 131.596 640.577 131.483 640.577 131.367C640.577 131.25 640.535 131.138 640.46 131.049C640.384 130.96 640.28 130.901 640.165 130.882C640.05 130.901 639.946 130.96 639.87 131.049C639.795 131.138 639.753 131.25 639.753 131.367C639.753 131.483 639.795 131.596 639.87 131.685C639.946 131.773 640.05 131.832 640.165 131.851Z" fill="#F9F6EA"/>
<path d="M542.676 196.97L541.537 196.414C541.421 196.369 541.292 196.369 541.175 196.414C541.113 196.429 541.055 196.455 541.003 196.493C540.952 196.531 540.909 196.579 540.877 196.634C540.832 196.755 540.832 196.888 540.877 197.009C540.895 197.07 540.925 197.126 540.965 197.175C541.005 197.224 541.054 197.264 541.11 197.293L542.236 197.837C542.356 197.886 542.491 197.886 542.611 197.837C542.735 197.804 542.841 197.725 542.909 197.617C542.934 197.557 542.947 197.494 542.947 197.429C542.947 197.365 542.934 197.301 542.909 197.242C542.896 197.181 542.869 197.124 542.831 197.074C542.793 197.025 542.744 196.985 542.689 196.957L542.676 196.97Z" fill="#F9F6EA"/>
<path d="M398.142 153.459L396.435 154.093C396.312 154.129 396.209 154.211 396.146 154.322C396.083 154.433 396.066 154.564 396.098 154.687C396.134 154.81 396.217 154.913 396.328 154.976C396.439 155.039 396.57 155.056 396.693 155.024L398.401 154.39C398.524 154.354 398.627 154.272 398.69 154.161C398.753 154.05 398.77 153.919 398.738 153.795C398.701 153.673 398.619 153.57 398.508 153.507C398.397 153.444 398.266 153.427 398.142 153.459Z" fill="#F9F6EA"/>
<path d="M169.368 361.652C169.483 361.633 169.587 361.574 169.663 361.486C169.738 361.397 169.779 361.284 169.779 361.168C169.779 361.051 169.738 360.939 169.663 360.85C169.587 360.761 169.483 360.702 169.368 360.683C169.253 360.702 169.148 360.761 169.073 360.85C168.997 360.939 168.956 361.051 168.956 361.168C168.956 361.284 168.997 361.397 169.073 361.486C169.148 361.574 169.253 361.633 169.368 361.652Z" fill="#F9F6EA"/>
<path d="M82.9536 356.778L81.2458 357.412C81.1223 357.445 81.0159 357.523 80.9482 357.632C80.9025 357.753 80.9025 357.886 80.9482 358.007C80.9646 358.068 80.9931 358.126 81.0321 358.176C81.0711 358.226 81.1197 358.268 81.1751 358.3C81.2305 358.331 81.2916 358.351 81.3549 358.358C81.4181 358.366 81.4822 358.361 81.5433 358.343L83.2383 357.722C83.3621 357.683 83.4677 357.6 83.5358 357.489C83.5608 357.432 83.5737 357.371 83.5737 357.308C83.5737 357.246 83.5608 357.185 83.5358 357.127C83.4996 357.005 83.4178 356.9 83.3073 356.835C83.1968 356.77 83.0657 356.75 82.9407 356.778H82.9536Z" fill="#F9F6EA"/>
<path d="M744.577 103.249C744.692 103.23 744.796 103.171 744.872 103.082C744.947 102.994 744.989 102.881 744.989 102.765C744.989 102.648 744.947 102.536 744.872 102.447C744.796 102.358 744.692 102.299 744.577 102.28C744.462 102.299 744.357 102.358 744.282 102.447C744.206 102.536 744.165 102.648 744.165 102.765C744.165 102.881 744.206 102.994 744.282 103.082C744.357 103.171 744.462 103.23 744.577 103.249Z" fill="#F9F6EA"/>
<path d="M294.429 83.0268C294.687 83.0268 294.934 82.9246 295.116 82.7427C295.298 82.5609 295.4 82.3142 295.4 82.057C295.4 81.7998 295.298 81.5531 295.116 81.3713C294.934 81.1894 294.687 81.0872 294.429 81.0872C294.172 81.0872 293.925 81.1894 293.743 81.3713C293.561 81.5531 293.459 81.7998 293.459 82.057C293.459 82.3142 293.561 82.5609 293.743 82.7427C293.925 82.9246 294.172 83.0268 294.429 83.0268Z" fill="#F9F6EA"/>
<path d="M269.161 409.716L268.035 409.16C267.924 409.096 267.801 409.056 267.673 409.043C267.546 409.011 267.412 409.011 267.285 409.043C267.161 409.073 267.046 409.13 266.948 409.211C266.85 409.286 266.767 409.378 266.703 409.483C266.637 409.595 266.596 409.72 266.58 409.849C266.565 409.978 266.575 410.108 266.612 410.233C266.642 410.355 266.696 410.469 266.772 410.569C266.847 410.669 266.943 410.753 267.052 410.815L268.191 411.358C268.296 411.434 268.423 411.475 268.553 411.474C268.68 411.506 268.814 411.506 268.941 411.474C269.064 411.445 269.176 411.383 269.264 411.293C269.372 411.229 269.458 411.135 269.51 411.022C269.577 410.912 269.621 410.791 269.639 410.664C269.657 410.537 269.648 410.408 269.614 410.285C269.582 410.162 269.525 410.047 269.447 409.947C269.37 409.847 269.272 409.764 269.161 409.703V409.716Z" fill="#F9F6EA"/>
<path d="M332.791 475.829C333.049 475.829 333.295 475.727 333.477 475.545C333.659 475.363 333.762 475.117 333.762 474.86C333.762 474.602 333.659 474.356 333.477 474.174C333.295 473.992 333.049 473.89 332.791 473.89C332.534 473.89 332.287 473.992 332.105 474.174C331.923 474.356 331.821 474.602 331.821 474.86C331.821 475.117 331.923 475.363 332.105 475.545C332.287 475.727 332.534 475.829 332.791 475.829Z" fill="#F9F6EA"/>
<path d="M547.127 86.1171L548.252 86.6602C548.364 86.7238 548.487 86.7635 548.615 86.7766C548.742 86.8089 548.875 86.8089 549.003 86.7766C549.127 86.7424 549.242 86.6805 549.339 86.5955C549.45 86.5263 549.539 86.4278 549.598 86.3111C549.664 86.199 549.706 86.0746 549.721 85.9455C549.737 85.8165 549.726 85.6856 549.688 85.5611C549.622 85.3179 549.464 85.1096 549.248 84.9792L548.11 84.4361C547.999 84.3706 547.876 84.3308 547.748 84.3198C547.626 84.2811 547.495 84.2811 547.373 84.3198C547.246 84.3413 547.129 84.3998 547.036 84.4879C546.929 84.5516 546.843 84.6462 546.79 84.7594C546.723 84.8708 546.679 84.9948 546.661 85.1237C546.643 85.2527 546.652 85.3839 546.687 85.5094C546.755 85.7553 546.918 85.9644 547.14 86.0912L547.127 86.1171Z" fill="#F9F6EA"/>
<path d="M603.77 155.412C604.028 155.412 604.275 155.309 604.457 155.128C604.639 154.946 604.741 154.699 604.741 154.442C604.741 154.185 604.639 153.938 604.457 153.756C604.275 153.574 604.028 153.472 603.77 153.472C603.513 153.472 603.266 153.574 603.084 153.756C602.902 153.938 602.8 154.185 602.8 154.442C602.8 154.699 602.902 154.946 603.084 155.128C603.266 155.309 603.513 155.412 603.77 155.412Z" fill="#F9F6EA"/>
<path d="M692.152 310.629L691.026 310.086C690.9 310.031 690.763 310.004 690.625 310.009C690.498 309.97 690.363 309.97 690.237 310.009C690.111 310.032 689.995 310.09 689.9 310.177C689.796 310.244 689.711 310.338 689.654 310.448C689.524 310.675 689.487 310.944 689.551 311.198C689.619 311.444 689.782 311.653 690.004 311.78L691.142 312.323C691.248 312.389 691.368 312.428 691.492 312.44C691.619 312.472 691.752 312.472 691.88 312.44C692.005 312.408 692.121 312.346 692.216 312.259C692.32 312.191 692.405 312.097 692.462 311.987C692.585 311.769 692.617 311.511 692.552 311.269C692.486 311.027 692.329 310.821 692.113 310.694L692.152 310.629Z" fill="#F9F6EA"/>
<path d="M701.286 370.782C701.543 370.782 701.79 370.68 701.972 370.498C702.154 370.316 702.256 370.069 702.256 369.812C702.256 369.555 702.154 369.308 701.972 369.126C701.79 368.945 701.543 368.842 701.286 368.842C701.029 368.842 700.782 368.945 700.6 369.126C700.418 369.308 700.316 369.555 700.316 369.812C700.316 370.069 700.418 370.316 700.6 370.498C700.782 370.68 701.029 370.782 701.286 370.782Z" fill="#F9F6EA"/>
<path d="M539.972 409.056C539.791 409.457 539.597 409.845 539.402 410.233C539.339 410.344 539.299 410.468 539.286 410.595C539.254 410.722 539.254 410.856 539.286 410.983C539.308 411.105 539.366 411.218 539.454 411.306C539.518 411.417 539.612 411.507 539.726 411.565C539.946 411.678 540.201 411.705 540.44 411.64C540.68 411.576 540.886 411.424 541.02 411.216C541.201 410.828 541.395 410.427 541.589 410.039C541.653 409.928 541.693 409.804 541.706 409.677C541.738 409.55 541.738 409.416 541.706 409.289C541.679 409.169 541.621 409.057 541.537 408.966C541.474 408.855 541.379 408.765 541.266 408.707C541.045 408.594 540.79 408.567 540.551 408.632C540.312 408.696 540.105 408.848 539.972 409.056Z" fill="#F9F6EA"/>
<path d="M598.763 290.522C599.021 290.522 599.268 290.42 599.45 290.238C599.632 290.056 599.734 289.81 599.734 289.553C599.734 289.295 599.632 289.049 599.45 288.867C599.268 288.685 599.021 288.583 598.763 288.583C598.506 288.583 598.259 288.685 598.077 288.867C597.895 289.049 597.793 289.295 597.793 289.553C597.793 289.81 597.895 290.056 598.077 290.238C598.259 290.42 598.506 290.522 598.763 290.522Z" fill="#F9F6EA"/>
<path d="M612.568 621C612.825 621 613.072 620.898 613.254 620.716C613.436 620.534 613.539 620.287 613.539 620.03C613.539 619.773 613.436 619.526 613.254 619.344C613.072 619.163 612.825 619.06 612.568 619.06C612.311 619.06 612.064 619.163 611.882 619.344C611.7 619.526 611.598 619.773 611.598 620.03C611.598 620.287 611.7 620.534 611.882 620.716C612.064 620.898 612.311 621 612.568 621Z" fill="#F9F6EA"/>
<path d="M266.961 11.2366C267.219 11.2366 267.466 11.1344 267.647 10.9525C267.829 10.7706 267.932 10.524 267.932 10.2668C267.932 10.0096 267.829 9.76289 267.647 9.58102C267.466 9.39915 267.219 9.29698 266.961 9.29698C266.704 9.29698 266.457 9.39915 266.275 9.58102C266.093 9.76289 265.991 10.0096 265.991 10.2668C265.991 10.524 266.093 10.7706 266.275 10.9525C266.457 11.1344 266.704 11.2366 266.961 11.2366Z" fill="#F9F6EA"/>
<path d="M-114.588 194.525C-114.473 194.507 -114.369 194.448 -114.293 194.359C-114.218 194.27 -114.177 194.157 -114.177 194.041C-114.177 193.925 -114.218 193.812 -114.293 193.723C-114.369 193.634 -114.473 193.575 -114.588 193.557C-114.703 193.575 -114.808 193.634 -114.883 193.723C-114.959 193.812 -115 193.925 -115 194.041C-115 194.157 -114.959 194.27 -114.883 194.359C-114.808 194.448 -114.703 194.507 -114.588 194.525Z" fill="#F9F6EA"/>
<path d="M-70.9476 315.684C-70.8326 315.665 -70.7281 315.606 -70.6527 315.518C-70.5772 315.429 -70.5358 315.316 -70.5358 315.2C-70.5358 315.083 -70.5772 314.971 -70.6527 314.882C-70.7281 314.793 -70.8326 314.734 -70.9476 314.715C-71.0625 314.734 -71.1671 314.793 -71.2425 314.882C-71.3179 314.971 -71.3593 315.083 -71.3593 315.2C-71.3593 315.316 -71.3179 315.429 -71.2425 315.518C-71.1671 315.606 -71.0625 315.665 -70.9476 315.684Z" fill="#F9F6EA"/>
<path d="M29.5573 276.182C29.8147 276.182 30.0615 276.08 30.2435 275.898C30.4254 275.716 30.5277 275.47 30.5277 275.213C30.5277 274.955 30.4254 274.709 30.2435 274.527C30.0615 274.345 29.8147 274.243 29.5573 274.243C29.2999 274.243 29.0531 274.345 28.8711 274.527C28.6892 274.709 28.5869 274.955 28.5869 275.213C28.5869 275.47 28.6892 275.716 28.8711 275.898C29.0531 276.08 29.2999 276.182 29.5573 276.182Z" fill="#F9F6EA"/>
<path d="M2.08928 204.392C2.34664 204.392 2.59346 204.29 2.77544 204.108C2.95741 203.926 3.05965 203.68 3.05965 203.423C3.05965 203.165 2.95741 202.919 2.77544 202.737C2.59346 202.555 2.34664 202.453 2.08928 202.453C1.83192 202.453 1.58511 202.555 1.40313 202.737C1.22115 202.919 1.11892 203.165 1.11892 203.423C1.11892 203.68 1.22115 203.926 1.40313 204.108C1.58511 204.29 1.83192 204.392 2.08928 204.392Z" fill="#F9F6EA"/>
<path d="M1799.67 17.3905C1799.78 17.3717 1799.89 17.3126 1799.96 17.2239C1800.04 17.1352 1800.08 17.0225 1800.08 16.9061C1800.08 16.7897 1800.04 16.677 1799.96 16.5883C1799.89 16.4995 1799.78 16.4405 1799.67 16.4217C1799.55 16.4405 1799.45 16.4995 1799.37 16.5883C1799.3 16.677 1799.26 16.7897 1799.26 16.9061C1799.26 17.0225 1799.3 17.1352 1799.37 17.2239C1799.45 17.3126 1799.55 17.3717 1799.67 17.3905Z" fill="#F9F6EA"/>
<path d="M1772.34 140.618C1772.46 140.599 1772.56 140.54 1772.64 140.452C1772.71 140.363 1772.75 140.25 1772.75 140.134C1772.75 140.017 1772.71 139.905 1772.64 139.816C1772.56 139.727 1772.46 139.668 1772.34 139.649C1772.23 139.668 1772.12 139.727 1772.05 139.816C1771.97 139.905 1771.93 140.017 1771.93 140.134C1771.93 140.25 1771.97 140.363 1772.05 140.452C1772.12 140.54 1772.23 140.599 1772.34 140.618Z" fill="#F9F6EA"/>
<path d="M2009.16 0.968827C2009.28 0.950002 2009.38 0.89095 2009.46 0.802216C2009.53 0.713482 2009.57 0.600842 2009.57 0.484413C2009.57 0.367984 2009.53 0.255345 2009.46 0.166611C2009.38 0.0778765 2009.28 0.0188251 2009.16 0C2009.05 0.0188251 2008.94 0.0778765 2008.87 0.166611C2008.79 0.255345 2008.75 0.367984 2008.75 0.484413C2008.75 0.600842 2008.79 0.713482 2008.87 0.802216C2008.94 0.89095 2009.05 0.950002 2009.16 0.968827Z" fill="#F9F6EA"/>
<path d="M2106.95 163.209L2105.81 162.666C2105.75 162.64 2105.69 162.627 2105.62 162.627C2105.56 162.627 2105.5 162.64 2105.44 162.666C2105.38 162.68 2105.32 162.707 2105.27 162.745C2105.22 162.783 2105.18 162.831 2105.15 162.885C2105.13 162.945 2105.11 163.009 2105.11 163.073C2105.11 163.137 2105.13 163.201 2105.15 163.26C2105.19 163.384 2105.26 163.49 2105.37 163.558L2106.51 164.101C2106.63 164.14 2106.76 164.14 2106.89 164.101C2107.01 164.062 2107.11 163.979 2107.17 163.868C2107.2 163.811 2107.21 163.749 2107.21 163.687C2107.21 163.625 2107.2 163.563 2107.17 163.506C2107.14 163.383 2107.06 163.277 2106.95 163.209Z" fill="#F9F6EA"/>
<path d="M2140.68 299.469C2140.8 299.451 2140.9 299.391 2140.98 299.303C2141.05 299.214 2141.09 299.101 2141.09 298.985C2141.09 298.869 2141.05 298.756 2140.98 298.667C2140.9 298.578 2140.8 298.519 2140.68 298.501C2140.57 298.519 2140.46 298.578 2140.39 298.667C2140.31 298.756 2140.27 298.869 2140.27 298.985C2140.27 299.101 2140.31 299.214 2140.39 299.303C2140.46 299.391 2140.57 299.451 2140.68 299.469Z" fill="#F9F6EA"/>
<path d="M1984.61 240.106C1984.72 240.087 1984.83 240.028 1984.9 239.939C1984.98 239.85 1985.02 239.738 1985.02 239.621C1985.02 239.505 1984.98 239.392 1984.9 239.303C1984.83 239.215 1984.72 239.156 1984.61 239.137C1984.49 239.156 1984.39 239.215 1984.31 239.303C1984.24 239.392 1984.19 239.505 1984.19 239.621C1984.19 239.738 1984.24 239.85 1984.31 239.939C1984.39 240.028 1984.49 240.087 1984.61 240.106Z" fill="#F9F6EA"/>
<path d="M1898.19 235.232L1896.48 235.865C1896.36 235.898 1896.25 235.977 1896.19 236.085C1896.14 236.206 1896.14 236.339 1896.19 236.46C1896.2 236.522 1896.23 236.579 1896.27 236.629C1896.31 236.68 1896.36 236.722 1896.41 236.753C1896.47 236.784 1896.53 236.804 1896.59 236.812C1896.66 236.819 1896.72 236.814 1896.78 236.796L1898.48 236.176C1898.6 236.136 1898.71 236.054 1898.77 235.943C1898.8 235.886 1898.81 235.824 1898.81 235.762C1898.81 235.7 1898.8 235.638 1898.77 235.581C1898.74 235.458 1898.66 235.354 1898.55 235.289C1898.44 235.224 1898.3 235.203 1898.18 235.232H1898.19Z" fill="#F9F6EA"/>
<path d="M2084.4 288.169L2083.27 287.613C2083.16 287.549 2083.04 287.51 2082.91 287.496C2082.78 287.464 2082.65 287.464 2082.52 287.496C2082.4 287.526 2082.28 287.584 2082.19 287.665C2082.09 287.739 2082.01 287.831 2081.94 287.936C2081.88 288.048 2081.83 288.173 2081.82 288.302C2081.8 288.431 2081.81 288.561 2081.85 288.686C2081.88 288.808 2081.93 288.922 2082.01 289.023C2082.09 289.123 2082.18 289.206 2082.29 289.268L2083.43 289.811C2083.53 289.888 2083.66 289.928 2083.79 289.927C2083.92 289.96 2084.05 289.96 2084.18 289.927C2084.3 289.899 2084.41 289.836 2084.5 289.746C2084.61 289.683 2084.7 289.588 2084.75 289.475C2084.82 289.366 2084.86 289.244 2084.88 289.117C2084.9 288.99 2084.89 288.861 2084.85 288.738C2084.82 288.615 2084.76 288.5 2084.69 288.4C2084.61 288.3 2084.51 288.217 2084.4 288.156V288.169Z" fill="#F9F6EA"/>
<path d="M2148.03 354.283C2148.29 354.283 2148.53 354.181 2148.72 353.999C2148.9 353.817 2149 353.57 2149 353.313C2149 353.056 2148.9 352.809 2148.72 352.627C2148.53 352.445 2148.29 352.343 2148.03 352.343C2147.77 352.343 2147.53 352.445 2147.34 352.627C2147.16 352.809 2147.06 353.056 2147.06 353.313C2147.06 353.57 2147.16 353.817 2147.34 353.999C2147.53 354.181 2147.77 354.283 2148.03 354.283Z" fill="#F9F6EA"/>
<path d="M1700.65 72.9788C1700.77 72.9599 1700.87 72.9009 1700.95 72.8121C1701.02 72.7234 1701.06 72.6108 1701.06 72.4943C1701.06 72.3779 1701.02 72.2653 1700.95 72.1765C1700.87 72.0878 1700.77 72.0288 1700.65 72.0099C1700.54 72.0288 1700.43 72.0878 1700.36 72.1765C1700.28 72.2653 1700.24 72.3779 1700.24 72.4943C1700.24 72.6108 1700.28 72.7234 1700.36 72.8121C1700.43 72.9009 1700.54 72.9599 1700.65 72.9788Z" fill="#F9F6EA"/>
<path d="M1744.29 194.138C1744.41 194.119 1744.51 194.06 1744.59 193.971C1744.66 193.882 1744.7 193.77 1744.7 193.653C1744.7 193.537 1744.66 193.424 1744.59 193.335C1744.51 193.247 1744.41 193.187 1744.29 193.169C1744.18 193.187 1744.07 193.247 1744 193.335C1743.92 193.424 1743.88 193.537 1743.88 193.653C1743.88 193.77 1743.92 193.882 1744 193.971C1744.07 194.06 1744.18 194.119 1744.29 194.138Z" fill="#F9F6EA"/>
<path d="M1844.8 154.636C1845.05 154.636 1845.3 154.534 1845.48 154.352C1845.66 154.17 1845.77 153.923 1845.77 153.666C1845.77 153.409 1845.66 153.162 1845.48 152.98C1845.3 152.798 1845.05 152.696 1844.8 152.696C1844.54 152.696 1844.29 152.798 1844.11 152.98C1843.93 153.162 1843.83 153.409 1843.83 153.666C1843.83 153.923 1843.93 154.17 1844.11 154.352C1844.29 154.534 1844.54 154.636 1844.8 154.636Z" fill="#F9F6EA"/>
<path d="M1817.33 82.8456C1817.58 82.8456 1817.83 82.7434 1818.01 82.5615C1818.2 82.3797 1818.3 82.133 1818.3 81.8758C1818.3 81.6186 1818.2 81.3719 1818.01 81.1901C1817.83 81.0082 1817.58 80.906 1817.33 80.906C1817.07 80.906 1816.82 81.0082 1816.64 81.1901C1816.46 81.3719 1816.36 81.6186 1816.36 81.8758C1816.36 82.133 1816.46 82.3797 1816.64 82.5615C1816.82 82.7434 1817.07 82.8456 1817.33 82.8456Z" fill="#F9F6EA"/>
</svg>
